<svg width="15" height="26" viewBox="0 0 15 26" fill="none" xmlns="http://www.w3.org/2000/svg">
<path fill-rule="evenodd" clip-rule="evenodd" d="M1.34486 1.34484C0.885045 1.80465 0.885045 2.55016 1.34486 3.00998L11.5255 13.1906L1.36197 23.3541C0.902155 23.8139 0.902155 24.5595 1.36197 25.0193C1.82179 25.4791 2.5673 25.4791 3.02711 25.0193L13.8505 14.1959C14.1409 13.9055 14.2479 13.5012 14.1716 13.1269C14.2082 12.7851 14.0954 12.4303 13.8334 12.1683L3.01 1.34484C2.55019 0.885019 1.80468 0.885019 1.34486 1.34484Z" fill="white"/>
<path d="M1.34486 3.00998L1.69841 2.65642L1.34486 3.00998ZM11.5255 13.1906L11.879 13.5442L12.2326 13.1906L11.879 12.8371L11.5255 13.1906ZM1.36197 23.3541L1.00842 23.0006L1.00842 23.0006L1.36197 23.3541ZM1.36197 25.0193L1.00842 25.3728L1.36197 25.0193ZM3.02711 25.0193L2.67356 24.6657L3.02711 25.0193ZM13.8505 14.1959L14.2041 14.5494L13.8505 14.1959ZM14.1716 13.1269L13.6744 13.0737L13.6661 13.1508L13.6816 13.2268L14.1716 13.1269ZM13.8334 12.1683L13.4799 12.5218L13.8334 12.1683ZM3.01 1.34484L3.36356 0.991281L3.01 1.34484ZM1.69841 2.65642C1.43386 2.39187 1.43386 1.96294 1.69841 1.69839L0.991308 0.991282C0.336229 1.64636 0.336229 2.70845 0.991308 3.36353L1.69841 2.65642ZM11.879 12.8371L1.69841 2.65642L0.991308 3.36353L11.1719 13.5442L11.879 12.8371ZM1.71552 23.7077L11.879 13.5442L11.1719 12.8371L1.00842 23.0006L1.71552 23.7077ZM1.71552 24.6657C1.45097 24.4012 1.45097 23.9722 1.71552 23.7077L1.00842 23.0006C0.35334 23.6557 0.353339 24.7177 1.00842 25.3728L1.71552 24.6657ZM2.67356 24.6657C2.409 24.9303 1.98008 24.9303 1.71552 24.6657L1.00842 25.3728C1.6635 26.0279 2.72559 26.0279 3.38067 25.3728L2.67356 24.6657ZM13.497 13.8423L2.67356 24.6657L3.38067 25.3728L14.2041 14.5494L13.497 13.8423ZM13.6816 13.2268C13.7259 13.4437 13.6637 13.6756 13.497 13.8423L14.2041 14.5494C14.6181 14.1354 14.7699 13.5588 14.6615 13.027L13.6816 13.2268ZM13.4799 12.5218C13.6305 12.6724 13.6956 12.8757 13.6744 13.0737L14.6687 13.1801C14.7207 12.6944 14.5604 12.1881 14.187 11.8147L13.4799 12.5218ZM2.65645 1.69839L13.4799 12.5218L14.187 11.8147L3.36356 0.991281L2.65645 1.69839ZM1.69841 1.69839C1.96297 1.43383 2.3919 1.43383 2.65645 1.69839L3.36356 0.991281C2.70848 0.336204 1.64639 0.336205 0.991308 0.991282L1.69841 1.69839Z" fill="white"/>
</svg>
