<?xml version="1.0" standalone="no"?>
<!DOCTYPE svg PUBLIC "-//W3C//DTD SVG 1.1//EN" "http://www.w3.org/Graphics/SVG/1.1/DTD/svg11.dtd" >
<!--
2013-9-30: Created.
-->
<svg>
<metadata>
Created by iconfont
</metadata>
<defs>

<font id="iconfont" horiz-adv-x="1024" >
  <font-face
    font-family="iconfont"
    font-weight="500"
    font-stretch="normal"
    units-per-em="1024"
    ascent="896"
    descent="-128"
  />
    <missing-glyph />

    <glyph glyph-name="github" unicode="&#58998;" d="M316.806387 54.93014q0 9.197605 9.197605 9.197605t9.197605-9.197605-9.197605-9.197605-9.197605 9.197605zM274.906188 65.149701q0 9.197605 9.197605 9.197605 10.219561 0 10.219561-9.197605 0-10.219561-10.219561-10.219561-9.197605 0-9.197605 10.219561zM509.956088 896q106.283433 0 199.792415-40.367265t163.001996-109.860279 109.860279-163.001996 40.367265-199.792415q0-82.778443-25.037924-158.914172t-69.493014-138.986028-106.794411-110.371257-135.92016-74.091816q-11.241517-2.043912-25.548902-1.021956t-17.373253 18.39521q-2.043912 12.263473-3.576846 32.702595t-2.043912 41.9002-1.021956 40.878244-0.510978 28.61477-3.576846 23.50499-8.175649 27.592814-9.197605 24.015968-6.642715 13.796407q-2.043912 2.043912 14.307385 4.598802t41.389222 9.708583 54.674651 20.439122 55.185629 35.257485 42.411178 54.163673 16.862275 78.179641q0 69.493014-8.175649 108.327345t-17.373253 58.251497q-11.241517 22.483034-25.548902 28.61477 6.131737 33.724551 9.197605 61.317365 2.043912 23.50499 0.510978 44.966068t-12.774451 27.592814q-11.241517 5.10978-33.213573-2.043912t-45.477046-18.39521q-26.570858-13.285429-57.229541-32.702595-15.329341 5.10978-33.724551 9.197605-16.351297 4.087824-38.834331 7.153693t-50.075848 3.065868-52.630739-3.065868-44.45509-6.131737q-22.483034-4.087824-41.9002-9.197605-30.658683 17.373253-57.229541 29.636727-23.50499 11.241517-45.988024 18.39521t-32.702595 3.065868q-11.241517-5.10978-13.796407-26.05988t-1.532934-45.477046q1.021956-28.61477 5.10978-63.361277-14.307385-15.329341-25.548902-36.790419-10.219561-18.39521-17.884232-44.966068t-7.664671-59.273453q0-47.00998 9.708583-82.778443t26.05988-61.828343 37.301397-43.944112 42.411178-29.125749q51.097804-26.570858 116.502994-30.658683-8.175649-9.197605-14.307385-17.373253-5.10978-7.153693-9.197605-13.796407t-4.087824-9.708583-0.510978-7.664671-1.532934-9.708583l-2.043912-10.219561q-10.219561-4.087824-21.461078-7.153693-9.197605-3.065868-20.439122-5.10978t-22.483034-2.043912-27.592814 11.752495-33.213573 27.081836-30.658683 30.147705-19.928144 20.9501q-6.131737 5.10978-16.351297 8.686627t-20.439122 5.620758-18.39521 2.55489-11.241517-0.510978q-6.131737-3.065868-9.197605-8.686627t5.10978-8.686627q4.087824-2.043912 11.752495-7.664671t15.840319-13.285429 15.329341-15.329341 10.219561-12.774451 9.197605-22.483034 19.928144-35.768463 36.790419-32.702595 61.828343-14.307385q26.570858 0 40.367265 0.510978t20.9501 1.532934l0-78.690619q0-6.131737-1.532934-13.796407t-5.620758-13.285429-11.241517-8.175649-18.39521 0.510978q-2.043912 1.021956-6.131737 1.021956-74.602794 26.570858-136.942116 74.091816t-107.816367 110.882236-71.025948 139.497006-25.548902 159.936128q0 106.283433 40.367265 199.792415t109.860279 163.001996 163.512974 109.860279 200.303393 40.367265zM380.167665 17.117764q4.087824-1.021956 6.131737-2.043912 5.10978-3.065868-6.131737-4.087824l0 6.131737zM359.728543 62.083832q0 10.219561 9.197605 10.219561t9.197605-10.219561q0-9.197605-9.197605-9.197605t-9.197605 9.197605zM177.820359 164.279441q0 6.131737 7.153693 6.131737t7.153693-6.131737q0-7.153693-7.153693-7.153693t-7.153693 7.153693zM246.291417 86.610778q0 9.197605 9.197605 9.197605t9.197605-9.197605q0-10.219561-9.197605-10.219561t-9.197605 10.219561zM207.457086 148.9501q7.153693 0 7.153693-7.153693t-7.153693-7.153693-7.153693 7.153693 7.153693 7.153693zM217.676647 115.225549q0 9.197605 9.197605 9.197605t9.197605-9.197605q0-10.219561-9.197605-10.219561t-9.197605 10.219561z"  horiz-adv-x="1028" />


    <glyph glyph-name="reddit1" unicode="&#59964;" d="M938.666667 405.333333C938.666667 465.066667 891.733333 512 832 512 806.4 512 780.8 503.466667 763.733333 486.4 699.733333 524.8 622.933333 550.4 533.333333 554.666667L580.266667 725.333333 725.333333 682.666667C725.333333 635.733333 763.733333 597.333333 810.666667 597.333333 857.6 597.333333 896 635.733333 896 682.666667 896 729.6 857.6 768 810.666667 768 780.8 768 750.933333 750.933333 738.133333 725.333333L567.466667 768C554.666667 772.266667 546.133333 763.733333 541.866667 750.933333L490.666667 554.666667C405.333333 550.4 324.266667 524.8 260.266667 486.4 243.2 503.466667 217.6 512 192 512 132.266667 512 85.333333 465.066667 85.333333 405.333333 85.333333 366.933333 102.4 337.066667 132.266667 315.733333L128 277.333333C128 123.733333 298.666667 0 512 0 725.333333 0 896 123.733333 896 277.333333L891.733333 315.733333C921.6 337.066667 938.666667 366.933333 938.666667 405.333333M384 392.533333C413.866667 392.533333 435.2 366.933333 435.2 341.333333 435.2 315.733333 413.866667 290.133333 384 290.133333 354.133333 290.133333 332.8 311.466667 332.8 341.333333 332.8 371.2 354.133333 392.533333 384 392.533333M674.133333 162.133333C597.333333 115.2 426.666667 115.2 349.866667 162.133333 341.333333 170.666667 337.066667 183.466667 345.6 192 354.133333 200.533333 366.933333 204.8 375.466667 196.266667 426.666667 157.866667 597.333333 157.866667 648.533333 196.266667 657.066667 204.8 669.866667 200.533333 678.4 192 686.933333 183.466667 682.666667 170.666667 674.133333 162.133333M640 290.133333C610.133333 290.133333 588.8 315.733333 588.8 341.333333 588.8 371.2 614.4 392.533333 640 392.533333 669.866667 392.533333 691.2 366.933333 691.2 341.333333 691.2 311.466667 669.866667 290.133333 640 290.133333Z"  horiz-adv-x="1024" />


    <glyph glyph-name="telegram" unicode="&#60153;" d="M417.28 100.266667 429.226667 280.746667 756.906667 576C771.413333 589.226667 753.92 595.626667 734.72 584.106667L330.24 328.533333 155.306667 384C117.76 394.666667 117.333333 420.693333 163.84 439.466667L845.226667 702.293333C876.373333 716.373333 906.24 694.613333 894.293333 646.826667L778.24 100.266667C770.133333 61.44 746.666667 52.053333 714.24 69.973333L537.6 200.533333 452.693333 118.186667C442.88 108.373333 434.773333 100.266667 417.28 100.266667Z"  horiz-adv-x="1024" />


    <glyph glyph-name="paixing" unicode="&#58941;" d="M921.6 58.18624l0 307.2c0 28.2752-22.92224 51.2-51.2 51.2L665.6 416.58624l0 307.2c0 28.28032-22.92224 51.2-51.2 51.2L409.6 774.98624c-28.27776 0-51.2-22.91968-51.2-51.2l0-128L153.6 595.78624c-28.27776 0-51.2-22.9248-51.2-51.2l0-486.4L0 58.18624l0-51.2 1024 0 0 51.2L921.6 58.18624zM153.6 58.18624 153.6 504.5888c0 28.2752-2.67776 39.99744 25.6 39.99744l179.2 0 0-486.4L153.6 58.18624zM409.6 58.18624l0 640c0 14.13888 11.46112 25.6 25.6 25.6l153.6 0c14.13888 0 25.6-11.46112 25.6-25.6l0-640L409.6 58.18624zM665.6 58.18624l0 307.2 179.2 0c28.27776 0 25.6-22.9248 25.6-51.20256l0-255.99744L665.6 58.18624z"  horiz-adv-x="1024" />


    <glyph glyph-name="zuqiu" unicode="&#59114;" d="M510.236843 387.730974m-148.658761 0a148.658761 148.658761 0 1 1 297.317523 0 148.658761 148.658761 0 1 1-297.317523 0ZM510.236843 833.057459c-245.946528 0-445.326485-199.379956-445.326484-445.326485s199.378933-445.326485 445.326484-445.326484S955.563328 141.783423 955.563328 387.730974 756.184395 833.057459 510.236843 833.057459z m-98.267071-838.260715c11.607362 61.687968-12.045337 127.387295-66.200747 166.733419-54.123688 39.322587-123.864052 41.534975-178.930206 11.489682-31.759331 50.687426-52.603055 108.908432-59.249429 171.373089 67.505463 3.323699 129.090077 47.562249 151.216004 115.661229 22.88215 70.424956-3.37691 145.006582-59.854203 186.68789 41.269939 49.545416 94.142124 89.083921 154.448628 114.441449 18.455327-72.52478 84.176145-126.172631 162.444742-126.172631 76.68452 0 141.324726 51.498908 161.267941 121.79288 60.046584-27.193339 112.275109-68.611657 152.392805-119.952976-61.944817-40.34794-91.77317-118.567419-67.838037-192.234209 21.916149-67.450205 82.541925-111.48921 149.289118-115.551736-9.093099-62.657039-32.531927-120.665197-66.8792-170.58719-56.251142 35.199687-130.545218 34.910091-187.521884-6.486738-52.613288-38.225603-76.438926-101.32471-67.111491-161.454182-25.616424-5.079692-52.099588-7.750521-79.20697-7.750521-33.889855-0.00307-66.804499 4.167926-98.267071 12.010545z"  horiz-adv-x="1024" />


    <glyph glyph-name="android1" unicode="&#58880;" d="M619.81 731.244l41.992 60.97c2.494 3.626 1.87 8.384-1.394 10.636-3.248 2.228-7.924 1.128-10.394-2.502l-43.64-63.344c-28.76 11.336-60.696 17.636-94.36 17.636-33.658 0-65.602-6.3-94.362-17.636l-43.632 63.348c-2.502 3.61-7.168 4.726-10.426 2.498-3.264-2.252-3.872-7.010-1.378-10.632l42-60.974c-66.782-31.070-113.622-90.116-119.586-159.026h454.75c-5.958 68.91-52.788 127.956-119.57 159.026zM417.012 635.128c-13.896 0-25.16 11.258-25.16 25.16s11.254 25.164 25.16 25.164c13.888 0 25.15-11.258 25.15-25.164 0-13.888-11.262-25.16-25.15-25.16zM606.988 635.128c-13.888 0-25.152 11.258-25.152 25.16 0 13.904 11.264 25.164 25.152 25.164 13.904 0 25.166-11.262 25.166-25.164 0.002-13.888-11.262-25.16-25.166-25.16zM255.426 284.858c0-28.014-22.706-50.728-50.728-50.728-28.014 0-50.728 22.714-50.728 50.728v205.192c0 28.014 22.714 50.724 50.728 50.724 28.022 0 50.728-22.71 50.728-50.724v-205.192zM284.622 539.208v-370.598c0-22.004 17.842-39.85 39.858-39.85h47.144v-114.032c0-28.022 22.706-50.728 50.728-50.728 28.014 0 50.728 22.706 50.728 50.728v114.032h77.848v-114.032c0-28.022 22.706-50.728 50.728-50.728 28.014 0 50.728 22.706 50.728 50.728v114.032h47.144c22.016 0 39.85 17.826 39.85 39.85v370.598h-454.756zM768.574 284.858c0-28.014 22.714-50.728 50.728-50.728 28.022 0 50.728 22.714 50.728 50.728v205.192c0 28.014-22.706 50.724-50.728 50.724-28.014 0-50.728-22.71-50.728-50.724v-205.192z"  horiz-adv-x="1024" />


    <glyph glyph-name="top" unicode="&#59011;" d="M511.955478-49.552696a38.867478 38.867478 0 0 1-38.733913-38.956521c0-21.459478 17.363478-38.956522 38.733913-38.956522 21.325913 0 38.689391 17.497043 38.689392 38.956522a38.867478 38.867478 0 0 1-38.733913 38.956521M511.955478 85.526261a38.867478 38.867478 0 0 1-38.733913-38.956522c0-21.459478 17.363478-38.956522 38.733913-38.956522 21.325913 0 38.689391 17.497043 38.689392 38.956522a38.867478 38.867478 0 0 1-38.733913 38.956522M511.955478 220.605217a38.867478 38.867478 0 0 1-38.733913-38.956521c0-21.459478 17.363478-38.956522 38.733913-38.956522 21.325913 0 38.689391 17.497043 38.689392 38.956522a38.867478 38.867478 0 0 1-38.733913 38.956521M511.109565 591.738435a28.805565 28.805565 0 0 1-28.894608-28.672v-181.960348l-243.222261-94.029913 272.918261 547.350261 273.007304-547.350261-244.958609 94.697739V563.066435a28.805565 28.805565 0 0 1-28.850087 28.672m328.926609-285.696L560.751304 865.992348 560.573217 866.348522A56.409043 56.409043 0 0 1 511.065043 896c-20.925217 0-39.357217-11.664696-48.128-30.45287L183.874783 306.086957c-8.45913-17.051826-7.568696-36.864 2.404174-53.114435 10.061913-16.339478 27.826087-26.445913 46.391652-26.445913 6.678261 0 13.312 1.246609 19.767652 3.739826l258.938435 100.084869c0.445217 0 1.024-0.089043 1.691826-0.178087l258.404174-99.906782c6.455652-2.493217 13.089391-3.739826 19.767652-3.739826 18.521043 0 36.285217 10.106435 46.34713 26.445913a54.316522 54.316522 0 0 1 2.448696 53.114435"  horiz-adv-x="1024" />


    <glyph glyph-name="Apple" unicode="&#58940;" d="M839.438767 222.411178q42.209595-59.761155 96.819749-77.265021a651.220121 651.220121 0 0 0-75.166465-152.622263q-79.315883-119.474616-156.580904-119.474616-28.616674 0-85.468467 19.554728-52.463903 19.554728-91.668747 19.554727t-86.517746-20.604005q-49.459152-19.554728-81.366744-19.554728-92.718025 0-182.288216 157.391709Q87.583341 185.352585 87.583341 335.685515q0 139.077038 67.964602 227.645645 70.063158 88.568607 173.035491 88.568607a254.926875 254.926875 0 0 0 50.460736-5.67564 223.114672 223.114672 0 0 0 57.710294-21.128645 324.036143 324.036143 0 0 1 52.463903-24.18109 112.081975 112.081975 0 0 1 31.907592-6.677224A211.763391 211.763391 0 0 1 562.381664 600.294364a190.205496 190.205496 0 0 1 55.611738 22.654867A419.711225 419.711225 0 0 0 669.455721 647.988822a123.48095 123.48095 0 0 0 44.308151 8.251141 225.833256 225.833256 0 0 0 129.776619-39.15715 286.166744 286.166744 0 0 0 62.8136-60.762738q-47.360596-41.208011-69.01388-72.11402a215.340475 215.340475 0 0 1-40.158733-125.674895 232.796646 232.796646 0 0 1 42.209595-135.976898z m-206.993945 480.998603q-36.05701-34.006148-65.91374-44.260456a210.618724 210.618724 0 0 0-26.279646-5.675641q-15.977643-2.575501-36.581649-4.769446 1.049278 90.619469 47.360596 156.580904t152.622264 90.619469q2.050862-10.302003 3.10014-14.308337V870.244993a239.235398 239.235398 0 0 0-17.503866-83.417606 253.686819 253.686819 0 0 0-56.661015-83.417606z m0 0"  horiz-adv-x="1024" />


    <glyph glyph-name="wei-bo" unicode="&#58912;" d="M742.794 394.319c-37.303 7.258-19.153 27.395-19.153 27.395s36.499 60.337-7.226 104.204c-54.22 54.33-185.94-6.912-185.94-6.912-50.32-15.653-36.96 7.142-29.849 45.936 0 45.706-15.626 123.06-149.64 77.37-133.87-45.937-248.846-206.886-248.846-206.886-79.939-106.95-69.33-189.61-69.33-189.61 19.955-182.478 213.35-232.57 363.765-244.426 158.243-12.448 371.85 54.69 436.593 192.613 64.77 138.152-52.928 192.828-90.374 200.316zM408.303 52.845c-157.125-7.359-284.115 71.62-284.115 176.73 0 105.224 126.99 189.61 284.115 196.869 157.183 7.258 284.429-57.68 284.429-162.688 0-105.096-127.247-203.753-284.43-210.911z m-31.369 304.291C218.951 338.595 237.187 190.21 237.187 190.21s-1.606-46.986 42.378-70.918c92.439-50.205 187.631-19.805 235.743 42.46 48.112 62.293 19.898 213.798-138.374 195.385z m-39.853-208.265c-29.476-3.465-53.274 13.582-53.274 38.333 0 24.636 21.132 50.435 50.636 53.526 33.89 3.233 55.968-16.343 55.968-41.093 0-24.636-23.912-47.417-53.33-50.766z m93.155 79.555c-10.006-7.488-22.278-6.453-27.554 2.531-5.505 8.752-3.44 22.796 6.652 30.167 11.698 8.742 23.883 6.223 29.16-2.542 5.304-8.97 1.52-22.437-8.258-30.156z m389.516 230.141c12.729 0 23.566 9.443 25.374 21.76 0.23 0.92 0.344 1.725 0.344 2.76 19.297 173.958-142.187 144.018-142.187 144.018-14.335 0-25.806-11.628-25.806-26.13 0-14.273 11.47-25.901 25.806-25.901 116.01 25.67 90.406-90.608 90.406-90.608 0-14.387 11.668-25.899 26.063-25.899z m-18.81 303.63c-55.856 13.108-113.256 1.81-129.342-1.28-1.233-0.115-2.41-1.294-3.556-1.523-0.545-0.116-0.889-0.69-0.889-0.69-15.886-4.5-27.47-19.217-27.47-36.609 0-20.726 16.746-37.772 37.677-37.772 0 0 20.3 2.73 34.09 8.135 13.677 5.52 129.284 4.11 186.743-92.59 31.311-70.572 13.763-117.801 11.584-125.39 0 0-7.455-18.341-7.455-36.392 0-20.843 16.745-33.936 37.502-33.936 17.376 0 31.942 2.373 36.214 31.807h0.23c61.677 206.052-75.436 302.87-175.329 326.24z"  horiz-adv-x="1024" />


    <glyph glyph-name="bitcoin" unicode="&#58999;" d="M1008.546805 260.089855c-68.350918-274.342323-346.149186-441.166348-620.448843-372.730098C113.926303-44.801317-53.068386 233.594275 15.453195 507.509938 83.718781 782.065591 361.602381 949.017614 635.731374 880.709362c274.342323-68.478916 441.25168-346.234518 372.815431-620.704839v0.085332z m-270.929044 196.818217c10.239838 67.838926-41.556675 104.531678-112.638217 129.277953l23.039636 91.859879-56.105779 14.079777-22.399645-89.897243c-14.719767 3.711941-30.079524 7.125221-45.396615 10.666498l22.442312 90.750563-56.319108 14.079777-23.039636-92.371871c-12.159807 2.858621-24.106285 5.631911-35.839432 8.533198l-77.438774 19.199696-14.933097-60.031049s41.599341-9.599848 40.746022-10.069174c22.826305-5.802575 26.879574-20.735672 26.239584-32.682149l-63.017669-252.582668c-3.199949-7.082555-10.239838-17.322392-26.196918-13.397121 0.63999-0.85332-40.959351 10.239838-40.959352 10.239838l-28.159554-64.425647 72.958845-18.175712 39.679372-10.32517-23.039636-93.43852 56.319109-13.951779 23.039635 92.5852c15.359757-4.266599 30.079524-8.106538 44.799291-11.647815l-21.759656-91.902545 56.319108-14.079777 23.252965 93.438521c95.57182-18.218378 167.677345-10.96516 197.970199 75.689468 24.319615 69.844227-1.27998 110.078257-51.924511 136.360507 36.436756 8.234536 63.998987 32.426153 71.678865 82.345363h0.42666z m-128.424633-180.050482c-17.23706-69.972225-134.696534-31.999493-172.797264-22.612976l30.719513 123.731375c38.228728-9.813178 160.296129-28.586214 142.077751-101.118399z m17.493056 180.903802c-15.786417-63.572327-113.576868-31.359503-145.2777-23.466295l27.903559 112.638217c31.743497-7.679878 133.843214-22.356979 117.331475-88.915926v-0.255996z"  horiz-adv-x="1024" />


    <glyph glyph-name="qiye" unicode="&#58886;" d="M507.55701714 208.50217797000005h-33.32237125v555.37285451c0 8.88596567-7.77521995 16.66118561-16.66118562 16.66118562H166.55808449c-8.88596567 0-16.66118561-7.77521995-16.66118564-16.66118562v-555.37285451h-33.32237126v555.37285451c0 27.76864271 22.21491419 49.9835569 49.9835569 49.98355693h291.01537578c27.76864271 0 49.9835569-22.21491419 49.98355687-49.98355693v-555.37285451zM509.77850858 186.2872638h-33.32237125v433.1908265c0 27.76864271 22.21491419 49.9835569 49.98355688 49.98355692h202.15571905c27.76864271 0 49.9835569-22.21491419 49.98355692-49.98355692V483.9671138h-33.32237128V619.4780903000001c0 8.88596567-7.77521995 16.66118561-16.66118564 16.66118566h-202.15571905c-8.88596567 0-16.66118561-7.77521995-16.66118563-16.66118566v-433.1908265zM650.84321363 184.06577237H81.03066489c-8.88596567 0-16.66118561 7.77521995-16.66118562 16.66118564s7.77521995 16.66118561 16.66118562 16.66118566h568.70180302c8.88596567 0 16.66118561-7.77521995 16.66118564-16.66118566 1.11074571-8.88596567-6.66447425-16.66118561-15.55043992-16.66118564zM377.59976921 628.36405597H246.53177555c-12.21820282 0-23.32565988 9.99671138-23.3256599 23.32565989 0 12.21820282 9.99671138 23.32565988 23.3256599 23.32565991h131.06799366c12.21820282 0 23.32565988-9.99671138 23.32565989-23.32565991 0-13.32894853-9.99671138-23.32565988-23.32565989-23.32565989zM377.59976921 472.85965674H246.53177555c-12.21820282 0-23.32565988 9.99671138-23.3256599 23.32565989 0 12.21820282 9.99671138 23.32565988 23.3256599 23.32565985h131.06799366c12.21820282 0 23.32565988-9.99671138 23.32565989-23.32565985 0-13.32894853-9.99671138-23.32565988-23.32565989-23.32565989zM377.59976921 317.35525744999995H246.53177555c-12.21820282 0-23.32565988 9.99671138-23.3256599 23.3256599 0 12.21820282 9.99671138 23.32565988 23.3256599 23.32565991h131.06799366c12.21820282 0 23.32565988-9.99671138 23.32565989-23.32565991 0-13.32894853-9.99671138-23.32565988-23.32565989-23.3256599zM655.28619647 472.85965674H589.75219963c-12.21820282 0-23.32565988 9.99671138-23.3256599 23.32565989 0 12.21820282 9.99671138 23.32565988 23.3256599 23.32565985h65.53399684c12.21820282 0 23.32565988-9.99671138 23.32565986-23.32565985 0-13.32894853-9.99671138-23.32565988-23.32565986-23.32565989zM655.28619647 317.35525744999995H589.75219963c-12.21820282 0-23.32565988 9.99671138-23.3256599 23.3256599 0 12.21820282 9.99671138 23.32565988 23.3256599 23.32565991h65.53399684c12.21820282 0 23.32565988-9.99671138 23.32565986-23.32565991 0-13.32894853-9.99671138-23.32565988-23.32565986-23.3256599zM855.2204241 139.63594403000002c-86.63816531 0-157.72589068 71.08772539-157.72589067 157.72589066 0 86.63816531 71.08772539 157.72589068 157.72589067 157.7258907s157.72589068-71.08772539 157.72589067-157.7258907c0-86.63816531-71.08772539-157.72589068-157.72589067-157.72589066z m0 282.12941008c-68.86623397 0-124.40351941-55.53728545-124.40351941-124.40351942s55.53728545-124.40351941 124.40351941-124.4035194 124.40351941 55.53728545 124.40351939 124.4035194-55.53728545 124.40351941-124.40351939 124.40351942zM925.19740379 356.23135729l-68.86623399 18.88267704-68.86623398-18.88267704c-11.10745708-34.43311698-11.10745708-64.42325114 0-91.08114816s33.32237125-46.65131978 68.86623398-59.9802683c33.32237125 9.99671138 56.64803116 29.99013414 68.86623399 59.9802683s12.21820282 59.98026826 0 91.08114816z m-77.75219966-96.6348767L811.90134146 295.14034326l2.22149143 8.88596567 33.32237124-15.5504399 47.76206549 45.54057407 4.44298281-8.8859657-52.2050483-65.53399681z"  horiz-adv-x="1024" />


    <glyph glyph-name="geren" unicode="&#58887;" d="M830.70996877 68.84441747000005c-92.414043 0-168.24095006 75.82690708-168.24095008 168.24095009 0 92.414043 75.82690708 168.24095006 168.24095008 168.24095003s168.24095006-75.82690708 168.24095008-168.24095003c0-92.414043-75.82690708-168.24095006-168.24095008-168.24095009z m0 299.75324204c-73.45731623 0-132.69708737-59.23977115-132.69708734-132.69708738s59.23977115-132.69708737 132.69708734-132.69708735 132.69708737 59.23977115 132.69708739 132.69708735-59.23977115 132.69708737-132.69708739 132.69708738zM905.35208043 299.87952497000003l-73.45731621 20.14152222-73.45731624-20.14152222c-11.84795422-36.72865811-11.84795422-68.71813455 0-97.15322469s35.54386267-49.76140777 73.45731624-63.97895283c35.54386267 10.66315881 60.42456657 31.98947642 73.45731621 63.97895283s13.03274967 63.97895281 0 97.15322469z m-82.93567961-103.0772018l-37.91345353 39.09824896 2.36959081 9.47836338 35.54386272-16.58713592 50.9462032 48.57661236 4.73918169-9.47836341-55.68538489-71.08772537zM303.47600556 474.04445216h-130.32749654c-9.47836338 0-17.77193132 8.29356795-17.77193133 17.77193133s8.29356795 17.77193132 17.77193133 17.77193134h130.32749654c9.47836338 0 17.77193132-8.29356795 17.77193133-17.77193134s-8.29356795-17.77193132-17.77193133-17.77193133zM303.47600556 379.26081827999997h-130.32749654c-9.47836338 0-17.77193132 8.29356795-17.77193133 17.77193139s8.29356795 17.77193132 17.77193133 17.77193132h130.32749654c9.47836338 0 17.77193132-8.29356795 17.77193133-17.77193132s-8.29356795-17.77193132-17.77193133-17.77193139zM303.47600556 284.47718447h-130.32749654c-9.47836338 0-17.77193132 8.29356795-17.77193133 17.77193135s8.29356795 17.77193132 17.77193133 17.77193137h130.32749654c9.47836338 0 17.77193132-8.29356795 17.77193133-17.77193137s-8.29356795-17.77193132-17.77193133-17.77193135zM598.49006588 161.25846048000005H60.59294384V663.61171983h734.57316224v-199.04563107h35.54386269V663.61171983c0 20.1415222-15.40234049 35.54386267-35.54386269 35.5438627h-734.57316224c-20.1415222 0-35.54386267-15.40234049-35.54386269-35.5438627v-501.1684639c0-20.1415222 15.40234049-35.54386267 35.54386269-35.54386271h537.89712204v34.35906726zM528.58713593 561.7193134199999c52.13099861 0 95.96842926-42.65263523 95.96842925-95.96842924 0-52.13099861-42.65263523-95.96842926-95.96842925-95.96842928-52.13099861 0-95.96842926 42.65263523-95.96842928 95.96842928 1.18479542 53.31579403 43.83743061 95.96842926 95.96842928 95.96842924m0 35.54386272c-72.27252082 0-131.51229195-59.23977115-131.51229194-131.51229196s59.23977115-131.51229195 131.51229194-131.51229195 131.51229195 59.23977115 131.51229194 131.51229195c0 73.45731623-59.23977115 131.51229195-131.51229194 131.51229196zM398.25963941 231.16139042999998h-35.54386272c0 86.49006588 59.23977115 130.32749654 177.71931344 130.32749654 34.35906727 0 62.79415744-3.55438626 87.67486133-10.66315882l-10.6631588-34.35906729c-20.1415222 5.9239771-46.20702149 9.47836338-77.01170253 9.47836343-66.34854371 0-142.17545075-10.66315881-142.17545072-94.78363386z"  horiz-adv-x="1024" />


    <glyph glyph-name="xihuanmoren" unicode="&#58889;" d="M655.36 532.48c10.24 0 15.36 0 25.6-5.12 30.72-15.36 61.44-35.84 40.96-128-15.36-66.56-81.92-122.88-204.8-163.84C394.24 276.48 327.68 332.8 307.2 404.48c-10.24 35.84-15.36 102.4 35.84 122.88 10.24 5.12 15.36 5.12 20.48 5.12 20.48 0 56.32-10.24 112.64-56.32l35.84-30.72 35.84 30.72c40.96 35.84 76.8 56.32 107.52 56.32m0 51.2c-46.08 0-92.16-25.6-143.36-71.68-56.32 46.08-102.4 71.68-148.48 71.68-15.36 0-25.6-5.12-40.96-10.24-76.8-30.72-87.04-117.76-66.56-184.32 25.6-92.16 112.64-158.72 256-204.8 148.48 46.08 235.52 112.64 256 204.8 15.36 76.8 10.24 153.6-71.68 184.32-15.36 5.12-25.6 10.24-40.96 10.24z"  horiz-adv-x="1024" />


    <glyph glyph-name="xihuanxuanzhong" unicode="&#58890;" d="M512 184.32c148.48 46.08 235.52 112.64 256 204.8 15.36 76.8 10.24 153.6-71.68 184.32-56.32 20.48-117.76 0-184.32-61.44-71.68 61.44-138.24 87.04-189.44 61.44-76.8-30.72-87.04-117.76-66.56-184.32 25.6-92.16 112.64-158.72 256-204.8z"  horiz-adv-x="1024" />


    <glyph glyph-name="touxiang" unicode="&#58893;" d="M499.712 392.192m-307.2 0a307.2 307.2 0 1 1 614.4 0 307.2 307.2 0 1 1-614.4 0ZM499.712 502.784m-77.824 0a77.824 77.824 0 1 1 155.648 0 77.824 77.824 0 1 1-155.648 0ZM356.352 326.656a143.36 63.488 0 1 1 286.72 0 143.36 63.488 0 1 1-286.72 0Z"  horiz-adv-x="1024" />


    <glyph glyph-name="chenggong" unicode="&#58894;" d="M513.28 828.16c-247.04 0-448-200.96-448-448s200.96-448 448-448 448 200.96 448 448-200.96 448-448 448z m-46.08-624.64L271.36 389.12l14.08 47.36L467.2 358.4 729.6 592.64l25.6-46.08-288-343.04z"  horiz-adv-x="1024" />


    <glyph glyph-name="icon-test" unicode="&#58895;" d="M512-67.84c-247.04 0-448 200.96-448 448s200.96 448 448 448 448-200.96 448-448-200.96-448-448-448z m0 870.4c-232.96 0-423.68-189.44-423.68-422.4S279.04-43.52 512-43.52s423.68 189.44 423.68 423.68-190.72 422.4-423.68 422.4zM277.76 373.76L473.6 188.16l288 344.32-25.6 46.08L473.6 344.32 291.84 422.4z"  horiz-adv-x="1024" />


    <glyph glyph-name="sousuo" unicode="&#58896;" d="M788.48 174.08l-81.92 81.92c30.72 46.08 46.08 97.28 46.08 153.6 0 148.48-122.88 266.24-266.24 266.24S215.04 558.08 215.04 409.6s122.88-266.24 266.24-266.24c61.44 0 122.88 25.6 168.96 61.44l81.92-81.92c15.36-15.36 40.96-15.36 56.32 0 15.36 10.24 15.36 35.84 0 51.2z m-302.08 46.08c-107.52 0-194.56 87.04-194.56 194.56s87.04 194.56 194.56 194.56 194.56-87.04 194.56-194.56-87.04-194.56-194.56-194.56z"  horiz-adv-x="1024" />


    <glyph glyph-name="api" unicode="&#58897;" d="M247.621818 170.821818c0 7.447273-6.516364 13.963636-13.963636 13.963637H96.814545c-7.447273 0-13.963636-6.516364-13.963636-13.963637s6.516364-13.963636 13.963636-13.963636h136.843637c7.447273 0 13.963636 6.516364 13.963636 13.963636zM131.258182 96.349091c0 7.447273-6.516364 13.963636-13.963637 13.963636h-46.545454c-7.447273 0-13.963636-6.516364-13.963636-13.963636s6.516364-13.963636 13.963636-13.963636h46.545454c7.447273 0 13.963636 6.516364 13.963637 13.963636zM182.458182 110.312727c-7.447273 0-13.963636-6.516364-13.963637-13.963636s6.516364-13.963636 13.963637-13.963636h46.545454c7.447273 0 13.963636 6.516364 13.963637 13.963636s-6.516364 13.963636-13.963637 13.963636h-46.545454zM554.821818 45.149091h-46.545454c-7.447273 0-13.963636-6.516364-13.963637-13.963636s6.516364-13.963636 13.963637-13.963637h46.545454c7.447273 0 13.963636 6.516364 13.963637 13.963637 0 8.378182-6.516364 13.963636-13.963637 13.963636zM238.312727 45.149091h-102.4c-7.447273 0-13.963636-6.516364-13.963636-13.963636s6.516364-13.963636 13.963636-13.963637h102.4c7.447273 0 13.963636 6.516364 13.963637 13.963637s-6.516364 13.963636-13.963637 13.963636zM452.421818 45.149091H319.301818c-7.447273 0-13.963636-6.516364-13.963636-13.963636s6.516364-13.963636 13.963636-13.963637h133.12c7.447273 0 13.963636 6.516364 13.963637 13.963637s-6.516364 13.963636-13.963637 13.963636zM377.949091 82.385455c7.447273 0 13.963636 6.516364 13.963636 13.963636s-6.516364 13.963636-13.963636 13.963636h-65.163636c-7.447273 0-13.963636-6.516364-13.963637-13.963636s6.516364-13.963636 13.963637-13.963636h65.163636zM455.214545 184.785455H319.301818c-7.447273 0-13.963636-6.516364-13.963636-13.963637s6.516364-13.963636 13.963636-13.963636H456.145455c7.447273 0 13.963636 6.516364 13.963636 13.963636-0.930909 8.378182-6.516364 13.963636-14.894546 13.963637zM191.767273 673.512727m-13.963637 0a13.963636 13.963636 0 1 1 27.927273 0 13.963636 13.963636 0 1 1-27.927273 0ZM247.621818 673.512727m-13.963636 0a13.963636 13.963636 0 1 1 27.927273 0 13.963636 13.963636 0 1 1-27.927273 0ZM303.476364 673.512727m-13.963637 0a13.963636 13.963636 0 1 1 27.927273 0 13.963636 13.963636 0 1 1-27.927273 0ZM359.330909 361.658182v88.436363c0 33.512727-20.48 53.992727-51.2 53.992728s-51.2-21.410909-51.2-53.992728v-88.436363h27.927273v37.236363h46.545454v-37.236363h27.927273z m-74.472727 65.163636v23.272727c0 17.687273 7.447273 26.065455 23.272727 26.065455s23.272727-8.378182 23.272727-26.065455v-23.272727h-46.545454zM526.894545 502.225455c-7.447273 0-13.032727-5.585455-13.032727-13.032728v-112.64c0-7.447273 5.585455-13.032727 13.032727-13.032727h0.93091c7.447273 0 13.032727 5.585455 13.032727 13.032727V489.192727c0 7.447273-5.585455 13.032727-13.032727 13.032728h-0.93091zM392.843636 501.294545v-139.636363h27.927273v34.443636c26.996364 0.930909 68.887273 6.516364 68.887273 54.923637 0 14.894545-4.654545 26.996364-13.032727 35.374545-13.963636 13.963636-35.374545 14.894545-55.854546 14.894545h-27.927273z m64.232728-34.443636c0.930909-0.930909 4.654545-4.654545 4.654545-15.825454 0-19.549091-9.309091-26.065455-40.96-26.996364v49.338182c14.894545 0 29.789091 0 36.305455-6.516364zM117.294545 247.156364h395.636364c0 9.309091 0.930909 18.618182 1.861818 27.927272H117.294545c-10.24 0-18.618182 8.378182-18.618181 18.618182V584.145455c1.861818-0.930909 4.654545-1.861818 6.516363-1.861819h484.072728c7.447273 0 13.963636 6.516364 13.963636 13.963637s-6.516364 13.963636-13.963636 13.963636h-484.072728c-2.792727 0-4.654545-0.930909-6.516363-1.861818V700.509091c0 10.24 8.378182 18.618182 18.618181 18.618182h560.407273c10.24 0 18.618182-8.378182 18.618182-18.618182v-214.109091c9.309091 2.792727 18.618182 4.654545 27.927273 6.516364V700.509091c0 26.065455-20.48 46.545455-46.545455 46.545454H117.294545c-26.065455 0-46.545455-20.48-46.545454-46.545454v-406.807273c0-25.134545 20.48-46.545455 46.545454-46.545454zM927.185455 282.530909h-6.516364c-3.723636 12.101818-8.378182 23.272727-13.963636 34.443636l4.654545 4.654546c14.894545 14.894545 14.894545 38.167273 0 53.061818l-13.032727 13.032727c-7.447273 7.447273-16.756364 11.170909-26.065455 11.170909-10.24 0-19.549091-3.723636-26.065454-11.170909l-4.654546-4.654545c-11.170909 5.585455-22.341818 10.24-33.512727 13.963636v7.447273c0 20.48-16.756364 37.236364-37.236364 37.236364h-18.618182c-20.48 0-37.236364-16.756364-37.236363-37.236364v-7.447273c-12.101818-3.723636-23.272727-8.378182-33.512727-13.963636l-4.654546 4.654545c-7.447273 7.447273-16.756364 11.170909-26.065454 11.170909s-19.549091-3.723636-26.065455-11.170909L611.607273 374.690909c-14.894545-14.894545-14.894545-38.167273 0-53.061818l4.654545-4.654546c-5.585455-11.170909-11.170909-22.341818-13.963636-34.443636H595.781818c-20.48 0-37.236364-16.756364-37.236363-37.236364v-18.618181c0-20.48 16.756364-37.236364 37.236363-37.236364h6.516364c3.723636-12.101818 8.378182-23.272727 13.963636-34.443636l-4.654545-4.654546c-14.894545-14.894545-14.894545-38.167273 0-53.061818l13.032727-13.032727c7.447273-7.447273 16.756364-11.170909 26.065455-11.170909 10.24 0 19.549091 3.723636 26.065454 11.170909l4.654546 4.654545c11.170909-6.516364 22.341818-11.170909 34.443636-13.963636v-6.516364c0-20.48 16.756364-37.236364 37.236364-37.236363h18.618181c20.48 0 37.236364 16.756364 37.236364 37.236363v6.516364c12.101818 3.723636 23.272727 8.378182 34.443636 13.963636l4.654546-4.654545c7.447273-7.447273 16.756364-11.170909 26.065454-11.170909 10.24 0 19.549091 3.723636 26.065455 11.170909l13.032727 13.032727c14.894545 14.894545 14.894545 38.167273 0 53.061818l-4.654545 4.654546c5.585455 11.170909 11.170909 22.341818 13.963636 34.443636h6.516364c20.48 0 37.236364 16.756364 37.236363 37.236364v18.618181c-1.861818 20.48-18.618182 37.236364-39.098181 37.236364z m9.30909-55.854545c0-5.585455-3.723636-9.309091-9.30909-9.309091h-28.858182c-2.792727-25.134545-13.032727-47.476364-26.996364-66.094546l21.410909-21.410909c3.723636-3.723636 3.723636-9.309091 0-13.032727l-13.032727-13.032727c-1.861818-1.861818-4.654545-2.792727-6.516364-2.792728s-4.654545 0.930909-6.516363 2.792728l-21.410909 21.410909c-18.618182-14.894545-41.890909-24.203636-66.094546-27.927273v-28.858182c0-5.585455-3.723636-9.309091-9.309091-9.309091h-18.618182c-5.585455 0-9.309091 3.723636-9.309091 9.309091v28.858182c-25.134545 3.723636-47.476364 13.032727-66.094545 27.927273L654.429091 104.727273c-1.861818-1.861818-4.654545-2.792727-6.516364-2.792728s-4.654545 0.930909-6.516363 2.792728l-13.032728 13.032727c-3.723636 3.723636-3.723636 9.309091 0 13.032727l20.48 20.48c-13.963636 18.618182-24.203636 41.890909-26.996363 66.094546h-28.858182c-5.585455 0-9.309091 3.723636-9.309091 9.309091v18.618181c0 5.585455 3.723636 9.309091 9.309091 9.309091h29.789091c3.723636 24.203636 13.032727 46.545455 27.927273 66.094546l-20.48 20.48c-3.723636 3.723636-3.723636 9.309091 0 13.032727l13.032727 13.032727c1.861818 1.861818 4.654545 2.792727 6.516363 2.792728s4.654545-0.930909 6.516364-2.792728l20.48-20.48c18.618182 13.963636 40.96 24.203636 66.094546 26.996364v29.789091c0 5.585455 3.723636 9.309091 9.30909 9.309091h18.618182c5.585455 0 9.309091-3.723636 9.309091-9.309091v-29.789091c24.203636-3.723636 46.545455-13.032727 66.094546-26.996364l21.410909 21.410909c1.861818 1.861818 4.654545 2.792727 6.516363 2.792728s4.654545-0.930909 6.516364-2.792728l13.032727-13.032727c3.723636-3.723636 3.723636-9.309091 0-13.032727l-21.410909-21.410909c13.963636-18.618182 24.203636-40.96 27.927273-66.094546h29.789091c5.585455 0 9.309091-3.723636 9.309091-9.309091v-18.618181zM764.276364 325.352727c-46.545455 0-83.781818-38.167273-83.781819-83.781818s38.167273-83.781818 83.781819-83.781818v27.927273c-30.72 0-55.854545 25.134545-55.854546 55.854545s25.134545 55.854545 55.854546 55.854546 55.854545-25.134545 55.854545-55.854546h27.927273c0.930909 45.614545-37.236364 83.781818-83.781818 83.781818z"  horiz-adv-x="1024" />


    <glyph glyph-name="dingwei" unicode="&#58898;" d="M475.428571 384C533.942857 384 585.142857 435.2 585.142857 493.714286S533.942857 603.428571 475.428571 603.428571 365.714286 552.228571 365.714286 493.714286 416.914286 384 475.428571 384z m0-409.6C256 201.142857 146.285714 369.371429 146.285714 493.714286 146.285714 676.571429 292.571429 822.857143 475.428571 822.857143S804.571429 676.571429 804.571429 493.714286c0-124.342857-109.714286-292.571429-329.142858-519.314286z"  horiz-adv-x="1024" />


    <glyph glyph-name="t" unicode="&#58899;" d="M824.32 537.6v20.48c30.72 20.48 56.32 51.2 76.8 81.92-30.72-10.24-56.32-20.48-92.16-25.6 30.72 20.48 56.32 51.2 71.68 87.04-30.72-15.36-66.56-30.72-102.4-35.84-30.72 30.72-71.68 51.2-112.64 51.2-87.04 0-158.72-66.56-158.72-153.6 0-10.24 0-25.6 5.12-35.84-133.12 5.12-245.76 71.68-322.56 168.96-15.36-25.6-20.48-51.2-20.48-81.92 0-56.32 25.6-102.4 71.68-133.12-25.6 0-51.2 10.24-71.68 20.48 0-76.8 56.32-143.36 128-158.72-15.36-5.12-25.6-5.12-40.96-5.12-10.24 0-20.48 0-30.72 5.12 15.36-66.56 71.68-112.64 143.36-112.64-56.32-40.96-122.88-66.56-194.56-66.56h-35.84c71.68-46.08 153.6-71.68 240.64-71.68 286.72 0 445.44 240.64 445.44 445.44z"  horiz-adv-x="1024" />


    <glyph glyph-name="f" unicode="&#58900;" d="M568.32 348.16v-348.16H404.48v348.16H337.92V496.64h66.56v25.6c0 92.16 15.36 158.72 40.96 194.56 25.6 35.84 71.68 51.2 138.24 51.2 30.72 0 66.56-5.12 112.64-15.36l25.6-5.12v-143.36c-35.84 0-66.56 5.12-92.16 5.12s-40.96-5.12-51.2-20.48c-10.24-15.36-10.24-35.84-10.24-71.68v-25.6H716.8v-148.48h-148.48z"  horiz-adv-x="1024" />


    <glyph glyph-name="i" unicode="&#58901;" d="M194.56 599.04V732.16h128v-133.12H194.56z m0-547.84V537.6h128v-486.4H194.56zM573.44 51.2H445.44V537.6h128v-25.6c46.08 25.6 87.04 40.96 122.88 40.96 66.56 0 107.52-20.48 133.12-56.32 25.6-35.84 35.84-97.28 35.84-179.2v-261.12h-128v261.12c0 40.96-5.12 71.68-15.36 92.16-10.24 15.36-30.72 25.6-56.32 25.6-25.6 0-51.2-5.12-76.8-15.36l-10.24-5.12v-363.52z"  horiz-adv-x="1024" />


    <glyph glyph-name="g" unicode="&#58902;" d="M343.04 0l-10.24 25.6-5.12-25.6c-15.36 0-66.56 0-112.64 25.6-61.44 25.6-92.16 76.8-92.16 143.36 0 66.56 35.84 117.76 102.4 143.36 40.96 15.36 87.04 20.48 117.76 25.6-10.24 25.6-15.36 46.08-15.36 56.32-20.48 0-61.44 5.12-97.28 30.72-40.96 25.6-66.56 76.8-66.56 143.36 0 76.8 35.84 138.24 102.4 168.96 46.08 25.6 92.16 25.6 102.4 25.6l128-5.12v-51.2h-5.12c35.84-30.72 40.96-76.8 40.96-122.88 0-76.8-35.84-117.76-61.44-143.36-15.36-10.24-20.48-20.48-20.48-30.72 0-10.24 20.48-25.6 35.84-40.96 20.48-15.36 40.96-35.84 56.32-61.44 20.48-30.72 30.72-61.44 30.72-97.28 0-40.96-10.24-76.8-25.6-107.52-15.36-30.72-46.08-51.2-76.8-71.68-51.2-25.6-107.52-30.72-128-30.72z m20.48 276.48h-10.24c-30.72 0-61.44-15.36-87.04-35.84-20.48-20.48-30.72-40.96-30.72-66.56 5.12-46.08 56.32-81.92 128-76.8 66.56 5.12 112.64 40.96 107.52 92.16-5.12 51.2-46.08 87.04-107.52 87.04z m-30.72 409.6h-10.24c-15.36-5.12-30.72-20.48-35.84-40.96-10.24-25.6-10.24-51.2 0-81.92 5.12-25.6 20.48-51.2 35.84-66.56 15.36-20.48 35.84-30.72 56.32-20.48 15.36 5.12 30.72 20.48 40.96 46.08 10.24 25.6 10.24 56.32 5.12 87.04-20.48 66.56-51.2 76.8-92.16 76.8z m435.2-440.32h-102.4v128h-122.88V481.28H665.6V604.16h102.4v-128h122.88v-107.52H768v-122.88z"  horiz-adv-x="1024" />


    <glyph glyph-name="zhongfayoujian" unicode="&#58903;" d="M824.32 691.2h-614.4c-56.32 0-102.4-46.08-102.4-102.4v-409.6c0-56.32 46.08-102.4 102.4-102.4h614.4c56.32 0 102.4 46.08 102.4 102.4V588.8c0 56.32-46.08 102.4-102.4 102.4z m-66.56-76.8l-158.72-92.16c-51.2-30.72-112.64-30.72-158.72 0l-153.6 92.16h471.04z m66.56-460.8h-614.4c-15.36 0-25.6 10.24-25.6 25.6V583.68l215.04-128c35.84-20.48 76.8-35.84 122.88-35.84 40.96 0 81.92 10.24 117.76 30.72l215.04 128V179.2c-5.12-15.36-15.36-25.6-30.72-25.6z"  horiz-adv-x="1024" />


    <glyph glyph-name="yanzheng" unicode="&#58904;" d="M153.6 51.2c-5.12 0-15.36 0-20.48 5.12-10.24 10.24-10.24 25.6 0 35.84l312.32 312.32-312.32 317.44c-10.24 10.24-10.24 25.6 0 35.84s25.6 10.24 35.84 0l353.28-353.28-353.28-353.28c0 5.12-10.24 0-15.36 0zM563.2 102.4c-5.12 0-15.36 0-20.48 5.12-10.24 10.24-10.24 25.6 0 35.84l261.12 261.12-261.12 261.12c-10.24 10.24-10.24 25.6 0 35.84s25.6 10.24 35.84 0l302.08-302.08-302.08-302.08c0 5.12-10.24 5.12-15.36 5.12z"  horiz-adv-x="1024" />


    <glyph glyph-name="guanbi" unicode="&#58905;" d="M588.8 404.48L870.4 686.08c20.48 20.48 20.48 61.44 0 81.92s-61.44 20.48-81.92 0L506.88 486.4 225.28 768c-20.48 20.48-56.32 20.48-81.92 0-20.48-25.6-20.48-61.44 0-81.92l281.6-281.6L143.36 128c-20.48-20.48-20.48-61.44 0-81.92 20.48-20.48 61.44-20.48 81.92 0l281.6 281.6 281.6-281.6c20.48-20.48 61.44-20.48 81.92 0 20.48 20.48 20.48 61.44 0 81.92l-281.6 276.48z"  horiz-adv-x="1024" />


    <glyph glyph-name="xiala" unicode="&#58906;" d="M517.12 245.76c-20.48 0-35.84 10.24-46.08 20.48L332.8 430.08c-15.36 20.48-10.24 40.96 5.12 56.32 15.36 15.36 40.96 10.24 56.32-5.12l122.88-148.48 122.88 148.48c15.36 15.36 35.84 20.48 56.32 5.12 15.36-15.36 20.48-35.84 5.12-56.32L563.2 271.36c-10.24-15.36-30.72-25.6-46.08-25.6z"  horiz-adv-x="1024" />


    <glyph glyph-name="gou" unicode="&#58907;" d="M25.6 360.96l391.68-373.76L993.28 675.84l-51.2 92.16-524.8-468.48-363.52 156.16z"  horiz-adv-x="1024" />


    <glyph glyph-name="chenggong1" unicode="&#58908;" d="M968.411429 443.977143c-29.257143 196.022857-184.32 351.085714-380.342858 380.342857C282.331429 869.668571 23.405714 610.742857 68.754286 306.468571c29.257143-196.022857 184.32-351.085714 380.342857-380.342857 305.737143-45.348571 563.2 213.577143 519.314286 517.851429zM936.228571 299.154286c-29.257143-174.08-168.228571-311.588571-340.845714-342.308572C299.885714-94.354286 48.274286 157.257143 99.474286 452.754286 130.194286 625.371429 267.702857 764.342857 441.782857 793.6 735.817143 846.262857 988.891429 593.188571 936.228571 299.154286zM473.965714 350.354286l-178.468571 76.068571-14.628572-46.811428 193.097143-182.857143 280.868572 336.457143-24.868572 45.348571z"  horiz-adv-x="1024" />


    <glyph glyph-name="shibai" unicode="&#58909;" d="M586.605714 825.782857C282.331429 871.131429 23.405714 612.205714 68.754286 306.468571c29.257143-196.022857 184.32-351.085714 380.342857-380.342857 305.737143-45.348571 563.2 213.577143 519.314286 519.314286-29.257143 196.022857-185.782857 351.085714-381.805715 380.342857z m8.777143-867.474286C299.885714-94.354286 48.274286 158.72 99.474286 452.754286 130.194286 626.834286 267.702857 764.342857 441.782857 795.062857 735.817143 846.262857 988.891429 593.188571 936.228571 299.154286c-29.257143-172.617143-168.228571-311.588571-340.845714-340.845715zM652.434286 553.691429l-136.045715-136.045715-134.582857 136.045715-42.422857-42.422858 134.582857-136.045714-134.582857-134.582857 42.422857-42.422857 134.582857 134.582857 136.045715-134.582857 42.422857 42.422857-134.582857 134.582857 134.582857 136.045714z"  horiz-adv-x="1024" />


    <glyph glyph-name="chexiao" unicode="&#58944;" d="M604.233143 518.802286H155.428571l217.965715 221.110857a46.957714 46.957714 0 0 1 0 67.657143c-19.236571 19.748571-44.909714 20.699429-64.146286 0.877714L14.409143 512.219429c-19.236571-19.748571-19.236571-45.933714 0-65.682286L309.321143 149.942857c19.163429-19.748571 44.836571-19.748571 64.146286 0.073143 19.163429 19.748571 19.163429 45.714286 0 65.462857l-217.965715 217.088H604.16c179.419429 0 335.945143-144.091429 335.945143-321.974857v-46.153143c0-26.404571 16.237714-46.153143 41.910857-46.153143 25.6 0 41.910857 19.748571 41.910857 46.08v46.226286c0 230.692571-189.001143 408.137143-419.84 408.137143h0.073143z"  horiz-adv-x="1024" />


    <glyph glyph-name="weixin" unicode="&#58951;" d="M1024 259.968c0 141.888-141.867 257.43-301.461 257.43-169.088 0-301.867-115.542-301.867-257.43 0-142.25 132.779-257.387 301.867-257.387 35.37 0 71.146 9.024 106.496 17.643l97.45-53.419-26.666 88.79C970.923 109.035 1024 180.16 1024 259.968z m-399.381 44.416c-17.643 0-35.328 17.664-35.328 35.392 0 17.621 17.685 35.328 35.328 35.328 26.752 0 44.458-17.707 44.458-35.328 0-17.728-17.706-35.392-44.458-35.392z m195.392 0c-17.664 0-35.307 17.664-35.307 35.392 0 17.621 17.643 35.328 35.307 35.328 26.709 0 44.416-17.707 44.416-35.328 0-17.728-18.134-35.392-44.416-35.392zM693.248 548.757c11.627 0 23.296-0.81 34.901-2.005C696.875 692.885 540.757 801.216 362.475 801.216 163.37 801.216 0 665.557 0 492.971c0-99.563 54.208-181.419 144.917-244.864L108.8 138.965l126.827 63.787c45.354-8.81 81.877-18.07 126.848-18.07 11.221 0 22.506 0.406 33.749 1.558-7.232 24.128-11.243 49.75-11.243 75.883-0.021 158.186 136.086 286.634 308.267 286.634z m-195.115 98.347c27.286 0 45.334-18.07 45.334-45.376 0-27.264-18.07-45.333-45.334-45.333-27.306 0-54.57 18.069-54.57 45.333 0.405 27.328 27.648 45.376 54.57 45.376zM244.46 556.437c-27.307 0-54.571 18.048-54.571 45.334 0 27.306 27.285 45.354 54.57 45.354 27.329 0 45.398-18.069 45.398-45.354-0.021-26.902-18.07-45.334-45.397-45.334z"  horiz-adv-x="1024" />


    <glyph glyph-name="jiantou" unicode="&#58910;" d="M38.4 465.066667v-89.6H682.666667v-123.733334l294.4 213.333334z"  horiz-adv-x="1024" />


    <glyph glyph-name="yanzheng1" unicode="&#58911;" d="M763.611429 601.965714c-8.777143 0-17.554286-2.925714-23.405715-10.24L473.965714 326.948571l-125.805714 125.805715c-5.851429 5.851429-14.628571 10.24-23.405714 10.24-8.777143 0-17.554286-2.925714-23.405715-10.24-5.851429-5.851429-10.24-14.628571-10.24-23.405715 0-8.777143 2.925714-17.554286 10.24-23.405714l150.674286-150.674286c5.851429-5.851429 14.628571-10.24 23.405714-10.24 8.777143 0 17.554286 2.925714 23.405715 10.24L787.017143 544.914286c5.851429 5.851429 10.24 14.628571 10.24 23.405714 0 8.777143-2.925714 17.554286-10.24 23.405714-7.314286 5.851429-14.628571 10.24-23.405714 10.24z m10.24 187.245715h-1.462858c-105.325714 0-193.097143 11.702857-248.685714 74.605714-55.588571-62.902857-143.36-74.605714-248.685714-74.605714C106.788571 789.211429 102.4 622.445714 102.4 622.445714v-377.417143c0-108.251429 260.388571-307.2 402.285714-340.845714 11.702857-2.925714 24.868571-2.925714 36.571429 0 143.36 33.645714 403.748571 231.131429 403.748571 340.845714V622.445714c0 121.417143-59.977143 166.765714-171.154285 166.765715z m111.177142-544.182858c0-62.902857-206.262857-236.982857-337.92-277.942857-14.628571-4.388571-32.182857-4.388571-46.811428 0-131.657143 40.96-337.92 215.04-337.92 277.942857V501.028571l1.462857 118.491429c0 11.702857 5.851429 109.714286 112.64 109.714286 89.234286 0 178.468571 7.314286 248.685714 55.588571 70.217143-48.274286 159.451429-55.588571 250.148572-55.588571 84.845714 0 111.177143-24.868571 111.177143-108.251429v-375.954286z"  horiz-adv-x="1024" />


    <glyph glyph-name="youjianyanzhengxiugai" unicode="&#58914;" d="M1163.475862-117.406897c-137.710345 0-247.172414 112.993103-247.172414 248.937931S1027.531034 382.234483 1165.241379 382.234483s247.172414-112.993103 247.172414-248.937931-111.227586-250.703448-248.937931-250.703449z m0 446.675863c-107.696552 0-194.206897-88.275862-194.206896-195.972414 0-109.462069 88.275862-195.972414 195.972413-195.972414s195.972414 88.275862 195.972414 195.972414-88.275862 195.972414-197.737931 195.972414zM1274.703448 225.103448l-111.227586 30.013793-109.462069-30.013793c-17.655172-54.731034-17.655172-102.4 0-144.772414s52.965517-74.151724 109.462069-95.337931c52.965517 15.889655 90.041379 47.668966 109.462069 95.337931 19.42069 47.668966 21.186207 97.103448 1.765517 144.772414z m-123.586207-153.6l-56.496551 58.262069 3.531034 14.124138 52.965517-24.717241 75.917242 72.386207 7.062069-14.124138-82.979311-105.931035zM1016.937931 887.172414H105.931034c-58.262069 0-105.931034-47.668966-105.931034-105.931035v-614.4c0-58.262069 47.668966-105.931034 105.931034-105.931034H815.668966v52.965517H105.931034c-30.013793 0-52.965517 22.951724-52.965517 52.965517V781.241379c0 7.062069 1.765517 12.358621 3.531035 19.42069l381.351724-264.827586c35.310345-24.717241 75.917241-35.310345 116.524138-35.310345s79.448276 12.358621 114.75862 35.310345L1064.606897 805.958621c3.531034-7.062069 7.062069-15.889655 7.062069-24.717242v-316.027586h52.965517V781.241379c-1.765517 58.262069-49.434483 105.931034-107.696552 105.931035zM637.351724 578.206897c-51.2-35.310345-120.055172-35.310345-171.255172 0L100.634483 834.206897H1011.641379L637.351724 578.206897z"  horiz-adv-x="1415" />


    <glyph glyph-name="shoujiyanzhengxiugai" unicode="&#58915;" d="M801.870769-128c-122.88 0-222.129231 100.824615-222.129231 222.129231s100.824615 222.129231 222.129231 222.129231 220.553846-100.824615 220.553846-222.129231S923.175385-128 801.870769-128z m0 398.572308c-97.673846 0-174.867692-78.769231-174.867692-174.867693S704.196923-80.738462 801.870769-80.738462 976.738462-1.969231 976.738462 94.129231s-80.344615 176.443077-174.867693 176.443077zM897.969231 177.624615l-97.673846 26.781539-97.673847-26.781539c-15.753846-48.836923-15.753846-91.372308 0-129.181538 15.753846-37.809231 47.261538-66.166154 97.673847-85.070769 47.261538 14.178462 80.344615 42.535385 97.673846 85.070769 17.329231 42.535385 17.329231 86.646154 0 129.181538z m-107.126154-135.483077L740.430769 92.553846l3.150769 12.603077 47.261539-22.055385 67.741538 64.59077 6.301539-12.603077-74.043077-92.947693zM480.492308 64.196923h-173.292308c-12.603077 0-23.630769-11.027692-23.630769-23.630769s11.027692-23.630769 23.630769-23.630769h171.716923c12.603077 0 23.630769 11.027692 23.630769 23.630769 1.575385 12.603077-9.452308 23.630769-22.055384 23.630769zM315.076923 629.76c-7.876923 4.726154-17.329231 1.575385-22.055385-6.301538l-122.88-211.101539c-4.726154-7.876923-1.575385-17.329231 6.301539-22.055385 7.876923-4.726154 17.329231-1.575385 22.055385 6.301539l122.88 211.101538c4.726154 7.876923 1.575385 17.329231-6.301539 22.055385zM220.553846 645.513846c-7.876923 4.726154-17.329231 1.575385-22.055384-6.301538l-75.618462-133.907693c-4.726154-7.876923-1.575385-17.329231 6.301538-22.055384 7.876923-4.726154 17.329231-1.575385 22.055385 6.301538l75.618462 133.907693c4.726154 7.876923 1.575385 17.329231-6.301539 22.055384zM527.753846-44.504615H96.098462c-26.781538 0-47.261538 20.48-47.261539 47.261538V108.307692h447.409231c0 15.753846 1.575385 31.507692 4.726154 47.261539H48.836923V703.803077h690.018462v-308.775385c15.753846 3.150769 31.507692 4.726154 47.261538 6.301539V801.476923c0 51.987692-42.535385 94.523077-94.523077 94.523077H96.098462c-51.987692 0-94.523077-42.535385-94.523077-94.523077v-800.295385c0-51.987692 42.535385-94.523077 94.523077-94.523076h463.163076c-12.603077 17.329231-23.630769 33.083077-31.507692 48.836923zM48.836923 801.476923c0 26.781538 20.48 47.261538 47.261539 47.261539h595.495384c26.781538 0 47.261538-20.48 47.261539-47.261539v-53.563077H48.836923V801.476923z"  horiz-adv-x="1024" />


    <glyph glyph-name="yichangtishi" unicode="&#58916;" d="M512 896C228.693333 896 0 667.306667 0 384s228.693333-512 512-512 512 228.693333 512 512S795.306667 896 512 896z m0-989.866667C249.173333-93.866667 34.133333 121.173333 34.133333 384S249.173333 861.866667 512 861.866667s477.866667-215.04 477.866667-477.866667-215.04-477.866667-477.866667-477.866667zM512 298.666667c29.013333 0 51.2 23.893333 51.2 51.2V622.933333c0 29.013333-22.186667 51.2-51.2 51.2s-51.2-22.186667-51.2-51.2v-273.066666c0-27.306667 22.186667-51.2 51.2-51.2zM512 211.626667c-37.546667 0-68.266667-30.72-68.266667-68.266667s30.72-68.266667 68.266667-68.266667 68.266667 30.72 68.266667 68.266667-30.72 68.266667-68.266667 68.266667z"  horiz-adv-x="1024" />


    <glyph glyph-name="xiaoxi" unicode="&#58928;" d="M888.514 153.665c-12.41-12.41-32.715-12.41-45.124 0l-90.249 90.248c-12.41 12.41-12.41 32.716 0 45.125 12.41 12.41 32.715 12.41 45.125 0l90.25-90.248c12.407-12.41 12.407-32.715-0.002-45.125z m46.766 260.967c0-17.55-14.358-31.908-31.907-31.908H775.742c-17.55 0-31.908 14.358-31.908 31.908s14.358 31.907 31.908 31.907h127.63c17.55 0 31.908-14.358 31.908-31.907zM753.141 522.055c12.41-12.41 32.715-12.41 45.125 0l90.25 90.249c12.409 12.41 12.409 32.715 0 45.124-12.41 12.41-32.716 12.41-45.125 0l-90.249-90.248c-12.41-12.41-12.41-32.715 0-45.125zM623.037-55.718c-11.11 0-22.583 4.449-32.72 13.025L343.659 165.99c-13.453 11.382-15.133 31.516-3.75 44.968 11.382 13.452 31.515 15.133 44.968 3.75l216.286-182.987V735.967l-194.12-165.535c-17.973-15.326-48.161-26.45-71.781-26.45H152.535V222.01h87.49c17.623 0 31.908-14.286 31.908-31.908s-14.285-31.908-31.907-31.908h-90.392c-33.589 0-60.915 27.326-60.915 60.915V546.883c0 33.589 27.326 60.915 60.915 60.915h185.627c8.383 0 23.996 5.753 30.376 11.192L590.295 810.567c15.43 13.156 33.994 16.695 49.662 9.465 15.667-7.23 25.021-23.653 25.021-43.93v-784.165c0-20.25-9.34-36.672-24.987-43.929a40.086 40.086 0 0 0-16.954-3.726z"  horiz-adv-x="1024" />


    <glyph glyph-name="ICON" unicode="&#58917;" d="M512 384m-512 0a512 512 0 1 1 1024 0 512 512 0 1 1-1024 0ZM505.173333 401.066667c71.68 0 126.293333 58.026667 126.293334 126.293333 0 71.68-58.026667 126.293333-126.293334 126.293333-71.68 0-126.293333-58.026667-126.293333-126.293333s58.026667-126.293333 126.293333-126.293333zM273.066667 237.226667a238.933333 105.813333 0 1 1 477.866666 0 238.933333 105.813333 0 1 1-477.866666 0Z"  horiz-adv-x="1024" />


    <glyph glyph-name="touxiang1" unicode="&#58918;" d="M512 384m-512 0a512 512 0 1 1 1024 0 512 512 0 1 1-1024 0ZM506.88 400.64c70.4 0 128 57.6 128 128s-57.6 128-128 128-128-57.6-128-128 57.6-128 128-128zM272.64 236.8a239.36 104.96 0 1 1 478.72 0 239.36 104.96 0 1 1-478.72 0Z"  horiz-adv-x="1024" />


    <glyph glyph-name="logo" unicode="&#58919;" d="M74.830769 281.6c0-212.676923 173.292308-389.907692 389.907693-389.907692h236.307692v208.738461h-236.307692c-98.461538 0-181.169231 82.707692-181.169231 181.169231 0 98.461538 82.707692 181.169231 181.169231 181.169231h27.56923v-181.169231h208.738462V667.569231h-236.307692c-212.676923 0-389.907692-173.292308-389.907693-385.969231zM1118.523077 667.569231h-39.384615l-196.923077 208.738461v-598.646154h208.738461v181.169231h27.569231c98.461538 0 181.169231-82.707692 181.169231-181.169231 0-98.461538-82.707692-181.169231-181.169231-181.16923h-236.307692v-208.738462h236.307692c212.676923 0 389.907692 173.292308 389.907692 389.907692s-177.230769 389.907692-389.907692 389.907693zM2394.584615 265.846154c-7.876923 153.6-129.969231 275.692308-283.56923 275.692308-157.538462 0-287.507692-126.030769-287.507693-287.507693 0-157.538462 126.030769-287.507692 287.507693-287.507692 66.953846 0 129.969231 23.630769 177.230769 63.015385v-7.876924c0-31.507692 23.630769-55.138462 55.138461-55.138461 31.507692 0 55.138462 23.630769 55.138462 55.138461v236.307693c-3.938462 3.938462-3.938462 3.938462-3.938462 7.876923z m-287.507692-189.046154c-94.523077 0-173.292308 78.769231-173.292308 173.292308 0 94.523077 78.769231 173.292308 173.292308 173.292307 94.523077 0 173.292308-78.769231 173.292308-173.292307 3.938462-94.523077-74.830769-173.292308-173.292308-173.292308zM3438.276923-29.538462c-157.538462 0-283.569231 126.030769-283.569231 283.569231s126.030769 283.569231 283.569231 283.569231c74.830769 0 145.723077-27.569231 196.923077-78.769231 23.630769-19.692308 23.630769-55.138462 0-78.769231-19.692308-23.630769-55.138462-23.630769-78.769231 0-31.507692 31.507692-74.830769 47.261538-118.153846 47.261539-94.523077 0-173.292308-78.769231-173.292308-173.292308 0-94.523077 78.769231-173.292308 173.292308-173.292307 43.323077 0 86.646154 15.753846 118.153846 47.261538 23.630769 19.692308 59.076923 19.692308 78.769231-3.938462s19.692308-59.076923-3.938462-78.76923c-51.2-47.261538-122.092308-74.830769-192.984615-74.83077zM4032.984615-29.538462c-157.538462 0-283.569231 126.030769-283.56923 283.569231s126.030769 283.569231 283.56923 283.569231c74.830769 0 145.723077-27.569231 196.923077-78.769231 23.630769-19.692308 23.630769-55.138462 0-78.769231-19.692308-23.630769-55.138462-23.630769-78.76923 0-31.507692 31.507692-74.830769 47.261538-118.153847 47.261539-94.523077 0-173.292308-78.769231-173.292307-173.292308 0-94.523077 78.769231-173.292308 173.292307-173.292307 43.323077 0 86.646154 15.753846 118.153847 47.261538 23.630769 19.692308 59.076923 19.692308 78.76923-3.938462s19.692308-59.076923-3.938461-78.76923c-51.2-47.261538-118.153846-74.830769-192.984616-74.83077zM2776.615385 537.6c-66.953846 0-129.969231-23.630769-177.23077-63.015385v78.769231c0 31.507692-23.630769 55.138462-55.138461 55.138462-31.507692 0-55.138462-23.630769-55.138462-55.138462V242.215385c7.876923-153.6 129.969231-275.692308 283.569231-275.692308 157.538462 0 287.507692 126.030769 287.507692 287.507692 3.938462 157.538462-126.030769 283.569231-283.56923 283.569231z m0-460.8c-94.523077 0-173.292308 78.769231-173.292308 173.292308 0 94.523077 78.769231 173.292308 173.292308 173.292307 94.523077 0 173.292308-78.769231 173.292307-173.292307 0-94.523077-78.769231-173.292308-173.292307-173.292308z"  horiz-adv-x="4332" />


    <glyph glyph-name="yonghu" unicode="&#58888;" d="M501.041 833.069c125.655 0 227.513-100.195 227.513-223.776 0-123.605-101.857-223.805-227.513-223.805-125.65 0-227.506 100.199-227.506 223.805-0.001 123.61 101.89 223.776 227.506 223.776z m0 0c125.655 0 227.513-100.195 227.513-223.776 0-123.605-101.857-223.805-227.513-223.805-125.65 0-227.506 100.199-227.506 223.805-0.001 123.61 101.89 223.776 227.506 223.776z m-85.31-522.194h189.63c162.314 0 293.88-129.388 293.88-289.058v-18.622c0-62.922-131.594-65.314-293.88-65.314H415.73c-162.32 0-293.88 0.093-293.88 65.314v18.622c0.001 159.67 131.56 289.058 293.88 289.058z"  horiz-adv-x="1024" />


    <glyph glyph-name="zhanghu" unicode="&#58920;" d="M521.362286 423.399619a236.30019 236.30019 0 1 0 0 472.600381 236.30019 236.30019 0 0 0 0-472.600381z m-256-118.150095h512a216.600381 216.600381 0 1 0 0-433.249524h-512a216.600381 216.600381 0 0 0 0 433.249524z"  horiz-adv-x="1024" />


    <glyph glyph-name="guanbi1" unicode="&#58921;" d="M562.924308 379.234462l194.953846-194.953847a39.384615 39.384615 0 0 0-55.729231-55.689846l-194.953846 194.953846-194.953846-194.953846a39.384615 39.384615 0 1 0-55.650462 55.689846l194.953846 194.953847-194.953846 194.953846a39.384615 39.384615 0 1 0 55.689846 55.689846l194.953847-194.953846 194.953846 194.953846a39.384615 39.384615 0 1 0 55.689846-55.729231l-194.953846-194.953846z"  horiz-adv-x="1024" />


    <glyph glyph-name="zixuanmoren" unicode="&#58922;" d="M512-49.095111c341.333333 211.683556 512 401.351111 512 568.888889C1024 676.124444 917.674667 782.222222 768.227556 782.222222c-93.866667 0-180.906667-52.736-261.006223-158.208-89.144889 100.977778-176.184889 151.495111-261.006222 151.495111C100.864 775.509333 0 671.971556 0 519.793778c0-167.537778 170.666667-357.205333 512-568.888889z"  horiz-adv-x="1024" />


    <glyph glyph-name="zixuanxuanzhong" unicode="&#58923;" d="M512-49.095111c341.333333 211.683556 512 401.351111 512 568.888889C1024 676.124444 917.674667 782.222222 768.227556 782.222222c-93.866667 0-180.906667-52.736-261.006223-158.208-89.144889 100.977778-176.184889 151.495111-261.006222 151.495111C100.864 775.509333 0 671.971556 0 519.793778c0-167.537778 170.666667-357.205333 512-568.888889z"  horiz-adv-x="1024" />


    <glyph glyph-name="gouxuanxuanzhong" unicode="&#58924;" d="M512-128A512 512 0 1 0 512 896a512 512 0 0 0 0-1024z m-46.535111 452.835556L342.755556 447.488a56.888889 56.888889 0 0 1-80.440889-80.440889l203.093333-203.093333 319.544889 319.431111a56.888889 56.888889 0 1 1-80.440889 80.497778L465.464889 324.835556z"  horiz-adv-x="1024" />


    <glyph glyph-name="search" unicode="&#58925;" d="M451.771331 112.91467599999999a331.257679 331.257679 0 1 1 0 662.515358 331.257679 331.257679 0 0 1 0-662.515358z m383.777079 92.872607l125.155174-125.155174a60.228669 60.228669 0 0 0-85.163338-85.163338l-117.084533 117.084533a451.715017 451.715017 0 1 0 77.092697 93.294208z"  horiz-adv-x="1024" />


    <glyph glyph-name="menu" unicode="&#58926;" d="M60.235294 835.764706h843.294118a60.235294 60.235294 0 0 0 0-120.470588H60.235294a60.235294 60.235294 0 1 0 0 120.470588z m0-361.411765h843.294118a60.235294 60.235294 0 0 0 0-120.470588H60.235294a60.235294 60.235294 0 1 0 0 120.470588z m0-361.411765h843.294118a60.235294 60.235294 0 0 0 0-120.470588H60.235294a60.235294 60.235294 0 0 0 0 120.470588z"  horiz-adv-x="1024" />


    <glyph glyph-name="gouxuanmoren" unicode="&#58927;" d="M512-128A512 512 0 1 0 512 896a512 512 0 0 0 0-1024z m0 46.535111A465.464889 465.464889 0 1 1 512 849.464889a465.464889 465.464889 0 0 1 0-930.929778z"  horiz-adv-x="1024" />


    <glyph glyph-name="gouxuanxuanzhong2" unicode="&#58936;" d="M512-128a512 512 0 1 0 0 1024 512 512 0 0 0 0-1024z m-50.312533 455.816533L321.3312 468.1728 224.802133 371.712l236.885334-236.885333 371.643733 371.643733-96.529067 96.529067-275.114666-275.114667z"  horiz-adv-x="1024" />


    <glyph glyph-name="save" unicode="&#58937;" d="M345.6 640h332.8a38.4 38.4 0 1 0 0-76.8h-332.8a38.4 38.4 0 0 0 0 76.8z m0-204.8h332.8a38.4 38.4 0 1 0 0-76.8h-332.8a38.4 38.4 0 1 0 0 76.8z m0-204.8h332.8a38.4 38.4 0 1 0 0-76.8h-332.8a38.4 38.4 0 1 0 0 76.8z m10.24 665.6a76.8 76.8 0 0 0-76.8-76.8H153.6a25.6 25.6 0 0 1-25.6-25.6v-819.2a25.6 25.6 0 0 1 25.6-25.6h716.8a25.6 25.6 0 0 1 25.6 25.6V793.6a25.6 25.6 0 0 1-25.6 25.6h-129.6384a76.8 76.8 0 0 0-76.8 76.8H870.4a102.4 102.4 0 0 0 102.4-102.4v-819.2a102.4 102.4 0 0 0-102.4-102.4H153.6a102.4 102.4 0 0 0-102.4 102.4V793.6a102.4 102.4 0 0 0 102.4 102.4h202.24z"  horiz-adv-x="1024" />


    <glyph glyph-name="view" unicode="&#58938;" d="M512 68.92307700000003c-188.494769 0-359.187692 105.038769-512 315.076923 152.812308 210.038154 323.505231 315.076923 512 315.076923s359.187692-105.038769 512-315.076923c-152.812308-210.038154-323.505231-315.076923-512-315.076923z m0 118.153846a196.923077 196.923077 0 1 1 0 393.846154 196.923077 196.923077 0 0 1 0-393.846154z m0 78.769231a118.153846 118.153846 0 1 0 0 236.307692 118.153846 118.153846 0 0 0 0-236.307692z"  horiz-adv-x="1024" />


    <glyph glyph-name="hidden" unicode="&#58939;" d="M512 68.92307700000003c-188.494769 0-359.187692 105.038769-512 315.076923 152.812308 210.038154 323.505231 315.076923 512 315.076923s359.187692-105.038769 512-315.076923c-152.812308-210.038154-323.505231-315.076923-512-315.076923z m0 118.153846a196.923077 196.923077 0 1 1 0 393.846154 196.923077 196.923077 0 0 1 0-393.846154z m0 78.769231a118.153846 118.153846 0 1 0 0 236.307692 118.153846 118.153846 0 0 0 0-236.307692z"  horiz-adv-x="1024" />


    <glyph glyph-name="forward" unicode="&#58881;" d="M721.591893 323.66933300000005L359.52256-38.39999999999998A85.333333 85.333333 0 1 0 238.861227 82.26133300000004L540.51456 384 238.861227 685.738667A85.333333 85.333333 0 1 0 359.52256 806.4L721.591893 444.330667a85.333333 85.333333 0 0 0 0-120.661334z"  horiz-adv-x="1024" />


    <glyph glyph-name="back" unicode="&#58882;" d="M251.997091 435.2L646.981818 830.184727a93.090909 93.090909 0 1 0 131.630546-131.630545L449.442909 369.384727l329.169455-329.076363a93.090909 93.090909 0 0 0-131.630546-131.723637L251.997091 303.56945499999995a93.090909 93.090909 0 0 0 0 131.630545z"  horiz-adv-x="1024" />


    <glyph glyph-name="huodong" unicode="&#58883;" d="M802.816 891.099429a28.818286 28.818286 0 0 1-27.209143 2.340571L253.293714 667.721143h-166.034285A86.089143 86.089143 0 0 1 1.097143 581.997714v-407.698285c0-47.250286 38.619429-85.723429 86.162286-85.723429h166.4l522.605714-210.797714a28.598857 28.598857 0 0 1 39.497143 26.477714V867.181714a28.525714 28.525714 0 0 1-12.946286 23.917715zM58.587429 174.299429V581.997714c0 15.798857 12.873143 28.525714 28.672 28.525715h143.286857v-464.822858H87.259429a28.672 28.672 0 0 0-28.672 28.598858z m699.757714-227.620572l-470.308572 189.732572V620.397714L758.345143 823.588571v-876.909714z m334.994286 441.344a290.084571 290.084571 0 0 0-106.934858-225.206857 28.745143 28.745143 0 0 0-46.884571 24.868571 28.379429 28.379429 0 0 0 10.313143 19.236572 233.325714 233.325714 0 0 1 86.016 181.101714c0 68.096-29.769143 132.827429-81.481143 177.225143a28.452571 28.452571 0 0 0-2.925714 40.301714 28.818286 28.818286 0 0 0 40.594285 2.925715 290.889143 290.889143 0 0 0 101.302858-220.452572z m222.208 0a487.862857 487.862857 0 0 0-163.693715-363.958857 28.818286 28.818286 0 0 0-47.908571 22.893714 28.525714 28.525714 0 0 0 9.508571 19.748572A430.811429 430.811429 0 0 1 1258.057143 388.022857a431.177143 431.177143 0 0 1-139.922286 317.074286 28.452571 28.452571 0 0 0-1.609143 40.374857 28.891429 28.891429 0 0 0 40.594286 1.609143 488.228571 488.228571 0 0 0 158.427429-359.131429z"  horiz-adv-x="1316" />


    <glyph glyph-name="logo1" unicode="&#58885;" d="M74.83 281.6c0-212.677 173.293-389.908 389.908-389.908h236.308V100.431H464.738c-98.461 0-181.169 82.707-181.169 181.169 0 98.462 82.708 181.17 181.17 181.17h27.569V281.6h208.738V667.57H464.738c-212.676 0-389.907-173.293-389.907-385.97z m1043.693 385.97h-39.385L882.215 876.307v-598.646h208.739V458.83h27.57c98.46 0 181.168-82.708 181.168-181.17 0-98.461-82.707-181.169-181.169-181.169H882.215v-208.738h236.308c212.677 0 389.908 173.292 389.908 389.908S1331.2 667.569 1118.523 667.569zM2394.585 265.846c-7.877 153.6-129.97 275.692-283.57 275.692-157.538 0-287.507-126.03-287.507-287.507 0-157.539 126.03-287.508 287.507-287.508 66.954 0 129.97 23.63 177.231 63.015v-7.876c0-31.508 23.63-55.139 55.139-55.139 31.507 0 55.138 23.63 55.138 55.139V257.969c-3.938 3.939-3.938 3.939-3.938 7.877zM2107.077 76.8c-94.523 0-173.292 78.77-173.292 173.292 0 94.523 78.769 173.293 173.292 173.293s173.292-78.77 173.292-173.293c3.939-94.523-74.83-173.292-173.292-173.292z m1331.2-106.338c-157.539 0-283.57 126.03-283.57 283.569S3280.739 537.6 3438.278 537.6c74.83 0 145.723-27.57 196.923-78.77 23.63-19.692 23.63-55.138 0-78.768-19.692-23.631-55.138-23.631-78.77 0-31.507 31.507-74.83 47.261-118.153 47.261-94.523 0-173.292-78.77-173.292-173.292 0-94.523 78.769-173.293 173.292-173.293 43.323 0 86.646 15.754 118.154 47.262 23.63 19.692 59.077 19.692 78.769-3.938s19.692-59.077-3.938-78.77c-51.2-47.261-122.093-74.83-192.985-74.83z m594.708 0c-157.539 0-283.57 126.03-283.57 283.569S3875.446 537.6 4032.985 537.6c74.83 0 145.723-27.57 196.923-78.77 23.63-19.692 23.63-55.138 0-78.768-19.693-23.631-55.139-23.631-78.77 0-31.507 31.507-74.83 47.261-118.153 47.261-94.523 0-173.293-78.77-173.293-173.292 0-94.523 78.77-173.293 173.293-173.293 43.323 0 86.646 15.754 118.153 47.262 23.631 19.692 59.077 19.692 78.77-3.938s19.692-59.077-3.939-78.77c-51.2-47.261-118.154-74.83-192.984-74.83zM2776.615 537.6c-66.953 0-129.969-23.63-177.23-63.015v78.769c0 31.508-23.631 55.138-55.139 55.138-31.508 0-55.138-23.63-55.138-55.138v-311.139c7.877-153.6 129.969-275.692 283.569-275.692 157.538 0 287.508 126.03 287.508 287.508 3.938 157.538-126.031 283.569-283.57 283.569z m0-460.8c-94.523 0-173.292 78.77-173.292 173.292 0 94.523 78.77 173.293 173.292 173.293 94.523 0 173.293-78.77 173.293-173.293 0-94.523-78.77-173.292-173.293-173.292z"  horiz-adv-x="4332" />


    <glyph glyph-name="biyong" unicode="&#58913;" d="M835.977401 384c60.745763 40.497175 101.242938 107.028249 101.242938 185.129944 0 121.491525-98.350282 219.841808-219.841808 219.841807h-57.853107V884.429379c0 5.785311-5.785311 11.570621-11.570622 11.570621H604.564972c-5.785311 0-11.570621-5.785311-11.570622-11.570621v-98.350283h-150.418079V884.429379c0 5.785311-5.785311 11.570621-11.570621 11.570621h-43.389831c-5.785311 0-11.570621-5.785311-11.570621-11.570621v-98.350283H161.988701C118.59887 788.971751 83.887006 751.367232 83.887006 707.977401 83.887006 676.158192 104.135593 647.231638 135.954802 635.661017v-503.322034c-28.926554-11.570621-52.067797-40.497175-52.067796-72.316384 0-43.389831 34.711864-78.101695 78.101695-78.101695h216.949152V-116.429379c0-5.785311 5.785311-11.570621 11.570622-11.570621h43.38983c5.785311 0 11.570621 5.785311 11.570622 11.570621v98.350283h150.418079V-116.429379c0-5.785311 5.785311-11.570621 11.570621-11.570621h43.389831c5.785311 0 11.570621 5.785311 11.570621 11.570621v98.350283h57.853107c121.491525 0 219.841808 98.350282 219.841808 219.841808-5.785311 75.20904-43.389831 144.632768-104.135593 182.237288z m-112.813559-112.813559c0-46.282486-37.60452-83.887006-83.887006-83.887006h-251.661017l-49.175141-66.531073c-11.570621-17.355932-37.60452-8.677966-37.60452 11.570621V525.740113c0 46.282486 37.60452 83.887006 83.887006 83.887006h254.553672c46.282486 0 83.887006-37.60452 83.887006-83.887006v-254.553672zM590.101695 395.570621m-31.819209 0a31.819209 31.819209 0 1 1 63.638418 0 31.819209 31.819209 0 1 1-63.638418 0ZM431.00565 395.570621m-31.819209 0a31.819209 31.819209 0 1 1 63.638418 0 31.819209 31.819209 0 1 1-63.638418 0Z"  horiz-adv-x="1024" />


    <glyph glyph-name="ArtboardCopy" unicode="&#58929;" d="M494.934016-93.866667c-71.68 0-139.741867 15.223467-201.216 42.5984a496.776533 496.776533 0 0 0-196.266667 157.354667A492.714667 492.714667 0 0 0 0.000683 401.066667C0.000683 674.4064 221.594283 896 494.934016 896S989.867349 674.4064 989.867349 401.066667 768.273749-93.866667 494.934016-93.866667z m-204.8 580.266667A51.2 51.2 0 0 1 238.934016 435.2V213.333333h102.4v221.866667A51.2 51.2 0 0 1 290.134016 486.4z m204.8 136.533333A51.2 51.2 0 0 1 443.734016 571.733333V213.333333h102.4V571.733333A51.2 51.2 0 0 1 494.934016 622.933333z m204.8-170.666666a51.2 51.2 0 0 1-51.2-51.2V213.333333h102.4v187.733334a51.2 51.2 0 0 1-51.2 51.2z"  horiz-adv-x="1024" />


    <glyph glyph-name="ArtboardCopy1" unicode="&#58930;" d="M494.934016-42.666667c245.077333 0 443.733333 198.656 443.733333 443.733334s-198.656 443.733333-443.733333 443.733333-443.733333-198.656-443.733333-443.733333c0-96.6656 30.9248-188.5184 87.381333-264.430934a445.576533 445.576533 0 0 1 175.957333-141.1072A441.9584 441.9584 0 0 1 494.934016-42.666667z m0-51.2c-71.68 0-139.741867 15.223467-201.216 42.5984a496.776533 496.776533 0 0 0-196.266667 157.354667A492.714667 492.714667 0 0 0 0.000683 401.066667C0.000683 674.4064 221.594283 896 494.934016 896S989.867349 674.4064 989.867349 401.066667 768.273749-93.866667 494.934016-93.866667zM290.134016 486.4a51.2 51.2 0 0 0 51.2-51.2V213.333333H238.934016v221.866667A51.2 51.2 0 0 0 290.134016 486.4z m204.8 136.533333A51.2 51.2 0 0 0 546.134016 571.733333V213.333333h-102.4V571.733333A51.2 51.2 0 0 0 494.934016 622.933333z m204.8-170.666666a51.2 51.2 0 0 0 51.2-51.2V213.333333h-102.4v187.733334a51.2 51.2 0 0 0 51.2 51.2z"  horiz-adv-x="1024" />


    <glyph glyph-name="Artboard" unicode="&#58931;" d="M494.934016-42.666667c245.077333 0 443.733333 198.656 443.733333 443.733334s-198.656 443.733333-443.733333 443.733333-443.733333-198.656-443.733333-443.733333c0-96.6656 30.9248-188.5184 87.381333-264.430934a445.576533 445.576533 0 0 1 175.957333-141.1072A441.9584 441.9584 0 0 1 494.934016-42.666667z m0-51.2c-71.68 0-139.741867 15.223467-201.216 42.5984a496.776533 496.776533 0 0 0-196.266667 157.354667A492.714667 492.714667 0 0 0 0.000683 401.066667C0.000683 674.4064 221.594283 896 494.934016 896S989.867349 674.4064 989.867349 401.066667 768.273749-93.866667 494.934016-93.866667zM502.989483 440.2176l-25.634134 63.249067 275.694934 111.752533-26.453334-72.2944c-3.140267-8.533333-5.5296-14.984533-7.236266-19.319467-85.435733-219.272533-248.388267-325.870933-481.962667-315.221333l3.072 68.1984c183.0912-8.362667 311.432533 62.293333 389.973333 215.278933l-127.453866-51.643733z"  horiz-adv-x="1024" />


    <glyph glyph-name="ArtboardCopy2" unicode="&#58932;" d="M494.934016-93.866667c-71.68 0-139.741867 15.223467-201.216 42.5984a496.776533 496.776533 0 0 0-196.266667 157.354667A492.714667 492.714667 0 0 0 0.000683 401.066667C0.000683 674.4064 221.594283 896 494.934016 896S989.867349 674.4064 989.867349 401.066667 768.273749-93.866667 494.934016-93.866667z m8.055467 499.950934l127.453866 51.643733c-78.5408-152.9856-206.882133-223.6416-389.9392-215.278933l-3.140266-68.1984c233.608533-10.6496 396.561067 95.9488 481.9968 315.221333 1.706667 4.334933 4.096 10.752 7.236266 19.319467l26.453334 72.2944-275.694934-111.752534 25.6-63.249066z"  horiz-adv-x="1024" />


    <glyph glyph-name="Riostoxlogo" unicode="&#58933;" d="M0 281.216c0 220.373333 180.821333 400.64 401.877333 400.64h244.992v-403.072h-215.978666v187.776h-29.013334c-102.528 0-185.941333-83.114667-185.941333-185.344 0-102.144 83.413333-185.301333 185.941333-185.301333h244.992v-215.296H401.877333c-221.013333 0-401.877333 180.266667-401.877333 400.64zM1073.493333 681.386667c221.013333 0 401.92-180.266667 401.92-400.64 0-220.330667-180.906667-400.64-401.92-400.64H828.586667v215.338666h244.949333c102.528 0 185.941333 83.114667 185.941333 185.301334s-83.413333 185.344-185.941333 185.344h-29.013333v-187.733334h-215.936V680.533333h-0.085334V896l203.136-214.613333h41.898667zM2003.328 128.384c88.704 0 160.597333 71.68 160.597333 160.128a160.384 160.384 0 0 1-160.597333 160.128 160.384 160.384 0 0 1-160.64-160.128 160.384 160.384 0 0 1 160.64-160.128z m306.304 174.677333h0.341333v-320.256l-133.632 53.290667a305.92 305.92 0 0 0-173.013333-53.290667c-169.386667 0-306.645333 136.874667-306.645333 305.706667s137.258667 305.706667 306.645333 305.706667c164.437333 0 298.666667-129.066667 306.304-291.157334zM2704.213333 448.64a160.384 160.384 0 0 1-160.597333-160.128 160.384 160.384 0 0 1 160.597333-160.128c88.746667 0 160.64 71.68 160.64 160.128a160.384 160.384 0 0 1-160.64 160.128z m-306.304-174.677333h-0.341333V702.848l138.709333-158.506667a305.92 305.92 0 0 0 167.936 49.877334c169.386667 0 306.645333-136.874667 306.645334-305.706667s-137.258667-305.706667-306.645334-305.706667c-164.437333 0-298.666667 129.066667-306.304 291.157334zM4253.44 108.928a306.517333 306.517333 0 0 0-248.234667-126.122667c-169.386667 0-306.645333 136.874667-306.645333 305.706667s137.301333 305.706667 306.645333 305.706667a306.56 306.56 0 0 0 251.861334-131.242667l-119.893334-83.2a160.426667 160.426667 0 0 1-131.968 68.864 160.384 160.384 0 0 1-160.597333-160.128 160.384 160.384 0 0 1 160.597333-160.128 160.341333 160.341333 0 0 1 130.133334 66.133333l118.058666-85.589333zM3643.818667 108.928a306.517333 306.517333 0 0 0-248.192-126.122667c-169.386667 0-306.645333 136.874667-306.645334 305.706667s137.301333 305.706667 306.645334 305.706667a306.56 306.56 0 0 0 251.861333-131.242667l-119.893333-83.2a160.426667 160.426667 0 0 1-131.968 68.864 160.384 160.384 0 0 1-160.597334-160.128 160.384 160.384 0 0 1 160.597334-160.128 160.341333 160.341333 0 0 1 130.090666 66.133333l118.101334-85.589333z"  horiz-adv-x="4266" />


    <glyph glyph-name="locked" unicode="&#58884;" d="M393.728 515.6864h-121.856v124.928c0 30.8224 6.144 59.6992 18.432 86.4256s29.184 50.2784 50.7904 70.656c21.504 20.2752 47.104 36.1472 76.3904 47.8208 29.2864 11.5712 61.44 17.408 96.1536 17.408 30.9248 0 60.7232-5.8368 89.3952-17.408 28.672-11.6736 54.272-27.648 76.3904-47.9232 22.2208-20.2752 39.936-43.8272 53.248-70.5536 13.2096-26.7264 19.7632-55.6032 19.7632-86.528v-124.8256H635.4944v97.792c0 40.5504-11.264 71.9872-33.792 94.208-22.6304 22.2208-53.248 33.3824-91.9552 33.3824-34.816 0-62.8736-11.1616-84.0704-33.3824-21.2992-22.2208-31.9488-53.6576-31.9488-94.208v-97.792z m480.5632-459.5712a90.3168 90.3168 0 0 0-90.3168-90.2144H240.3328a90.3168 90.3168 0 0 0-90.2144 90.2144V363.92960000000005c0 49.7664 40.3456 90.2144 90.2144 90.2144h543.744c49.7664 0 90.112-40.448 90.112-90.2144v-307.8144z"  horiz-adv-x="1024" />


    <glyph glyph-name="wenhao" unicode="&#58934;" d="M512-49.230769a433.230769 433.230769 0 1 1 0 866.461538 433.230769 433.230769 0 0 1 0-866.461538z m0-78.769231a512 512 0 1 0 0 1024 512 512 0 0 0 0-1024zM520.664615 665.993846c51.2 0 92.947692-13.390769 124.455385-41.747692 31.507692-27.569231 47.261538-65.378462 47.261538-113.427692 0-39.384615-10.24-71.68-29.144615-96.886154-7.089231-7.876923-29.932308-29.144615-67.741538-62.227693-14.178462-11.815385-24.418462-25.206154-31.507693-39.384615-7.876923-15.753846-11.815385-32.295385-11.815384-51.2v-11.027692H461.587692v11.027692c0 29.932308 4.726154 55.926154 15.753846 77.193846 10.24 21.267692 40.96 54.350769 92.16 100.036923l9.452308 11.027693c14.178462 17.329231 21.267692 36.233846 21.267692 55.926153 0 25.993846-7.876923 46.473846-22.055384 61.44-14.966154 14.966154-36.233846 22.055385-63.015385 22.055385-34.658462 0-59.076923-10.24-74.043077-32.295385-13.390769-18.116923-19.692308-44.110769-19.692307-77.193846H331.618462c0 58.289231 16.541538 103.975385 51.2 137.058462 33.870769 33.083077 79.556923 49.624615 137.846153 49.624615z m-14.178461-454.498461c17.329231 0 32.295385-5.513846 44.110769-16.541539 11.027692-11.027692 17.329231-25.206154 17.329231-42.535384 0-17.329231-6.301538-32.295385-18.116923-43.323077a60.652308 60.652308 0 0 0-43.323077-16.541539c-17.329231 0-31.507692 6.301538-43.323077 17.329231a55.296 55.296 0 0 0-17.329231 42.535385c0 17.329231 5.513846 31.507692 17.329231 42.535384a60.652308 60.652308 0 0 0 43.323077 16.541539z"  horiz-adv-x="1024" />


    <glyph glyph-name="yaoqinghaoyou" unicode="&#58935;" d="M694.009266 202.176583v135.982169a40.80489 40.80489 0 0 0 81.60978 0v-135.982169h135.982169a40.80489 40.80489 0 0 0 0-81.60978H775.670244V-15.364168a40.80489 40.80489 0 0 0-81.60978 0v135.982169h-135.982169a40.80489 40.80489 0 0 0 0 81.609781h135.982169z m-231.569032 163.52675a39.934522 39.934522 0 0 0-7.526122-0.665575c-198.64865 0-375.12852-173.817569-375.12852-370.469493a39.780928 39.780928 0 0 0-79.561856 0c0 189.688982 131.681528 359.666692 305.959879 423.357136a265.103791 265.103791 0 1 0 157.997354-52.222068h-1.740735zM467.969629 453.098499a179.19337 179.19337 0 1 1 0 358.38674 179.19337 179.19337 0 0 1 0-358.38674z"  horiz-adv-x="1024" />


    <glyph glyph-name="yonghu1" unicode="&#58942;" d="M345.998222 343.324444a296.391111 296.391111 0 0 0-125.553778 242.915556C220.444444 749.397333 350.833778 881.777778 512 881.777778s291.555556-132.437333 291.555556-295.480889c0-163.100444-130.389333-295.537778-291.555556-295.537778-196.266667 0-355.555556-161.848889-355.555556-361.870222a42.666667 42.666667 0 1 0-85.333333 0c0 187.335111 113.607111 347.875556 274.887111 414.435555zM512 376.035556c113.777778 0 206.222222 93.980444 206.222222 210.204444S625.720889 796.444444 512 796.444444c-113.777778 0-206.222222-93.923556-206.222222-210.147555S398.279111 376.035556 512 376.035556zM952.888889-71.111111a42.666667 42.666667 0 1 0-85.333333 0 363.918222 363.918222 0 0 1-95.687112 246.954667 42.666667 42.666667 0 1 0 62.862223 57.742222A449.194667 449.194667 0 0 0 952.888889-71.111111z"  horiz-adv-x="1024" />


    <glyph glyph-name="caidan" unicode="&#58943;" d="M73.142857 896h1024a73.142857 73.142857 0 0 0 0-146.285714H73.142857a73.142857 73.142857 0 1 0 0 146.285714z m0-438.857143h1024a73.142857 73.142857 0 0 0 0-146.285714H73.142857a73.142857 73.142857 0 1 0 0 146.285714z m0-438.857143h1024a73.142857 73.142857 0 0 0 0-146.285714H73.142857a73.142857 73.142857 0 0 0 0 146.285714z"  horiz-adv-x="1170" />


    <glyph glyph-name="facebook" unicode="&#58945;" d="M642.3552 316.0576h87.7056c9.728 0 13.6192 1.9456 13.6192 11.6736 3.9424 33.1264 7.8336 66.2528 13.6704 99.4304v9.728h-114.9952c0 33.1264-1.9456 66.2528 0 97.4848 1.9456 21.4016 21.4528 31.1808 50.688 33.1264h70.144V676.6592c-19.456 1.9456-37.0176 3.8912-56.5248 3.8912-29.184 0-58.4704 0-85.76-5.8368-62.3616-15.616-101.376-68.2496-101.376-132.608v-103.2704c-5.8368 0-11.6736-1.9456-17.5104-1.9456H429.8752c-9.728 0-13.6704-1.9456-13.6704-11.6736v-95.5392c0-9.728 3.9424-13.6192 13.6704-13.6192h87.7056v-300.1856H102.4V793.6h779.7248v-777.728h-226.1504c-9.728 0-15.5648 1.9456-15.5648 13.6192v280.6784c1.9456 0 1.9456 1.9456 1.9456 5.888z"  horiz-adv-x="1024" />


    <glyph glyph-name="twitter" unicode="&#58946;" d="M874.0864 629.1968a180.992 180.992 0 0 1 79.0016 99.4304 370.944 370.944 0 0 0-114.176-43.2128 179.712 179.712 0 0 1-306.2784-163.6864 508.928 508.928 0 0 0-370.2784 187.1872 176.0256 176.0256 0 0 1-24.32-90.4192c0-62.4128 31.744-117.248 79.872-149.504a179.2 179.2 0 0 0-81.3056 22.4768v-2.2016a179.712 179.712 0 0 1 144.0768-176.2816 182.528 182.528 0 0 0-80.7424-3.072 180.224 180.224 0 0 1 168.1408-124.7744A360.4992 360.4992 0 0 0 102.4 110.7456a511.2832 511.2832 0 0 1 276.0192-80.64c330.7008 0 511.2832 273.7152 511.2832 510.6176 0 7.68 0 15.36-0.512 23.04a363.2128 363.2128 0 0 1 89.8048 93.0816 421.376 421.376 0 0 0-104.96-27.648z"  horiz-adv-x="1024" />


    <glyph glyph-name="tele" unicode="&#58947;" d="M395.52 72.0384l14.2336 214.8352 389.9904 351.3856c17.2544 15.7184-3.584 23.3472-26.4192 9.6256l-481.3824-304.128-208.2304 65.9968c-44.6976 12.6976-45.1584 43.6736 10.1888 66.048l810.9568 312.7808c37.0688 16.7424 72.6016-9.1648 58.368-66.048l-138.1376-650.496c-9.6256-46.1824-37.5296-57.344-76.1344-36.0448l-210.2272 155.392-101.0688-97.9968c-11.6736-11.6736-21.2992-21.3504-42.1376-21.3504z"  horiz-adv-x="1024" />


    <glyph glyph-name="weibo" unicode="&#58948;" d="M995.7376 443.392a38.7584 38.7584 0 1 0-73.5232 23.7056 189.8496 189.8496 0 0 1-220.0576 244.736 38.7584 38.7584 0 0 0-15.616 75.0592 267.4176 267.4176 0 0 0 309.76-343.9616l-0.512 0.512z m-266.9056 142.08a33.28 33.28 0 0 0-13.6192 64.9728 129.9456 129.9456 0 0 0 151.0912-167.7312 33.28 33.28 0 1 0-62.976 20.6336 63.488 63.488 0 0 1-74.496 82.1248z m28.16-186.368a151.0912 151.0912 0 0 0 121.9072-137.984c0-126.9248-182.272-286.5664-456.2944-286.5664-208.9984 0-422.5536 100.7104-422.5536 268.4416 0 87.0912 55.3984 188.3648 151.0912 283.5456 126.976 127.3856 274.9952 185.344 330.3936 129.4336 24.9856-34.304 29.2352-79.5136 11.1104-117.8624-8.0896-25.7024 24.1664-11.5712 24.1664-11.5712 100.7104 43.3152 191.8464 45.824 224.6144 0a105.7792 105.7792 0 0 0 0-100.7616c-7.5776-18.6368 0-21.6576 16.5888-25.6512l-1.024-1.024z m-332.3392-364.1344c166.7072 16.64 293.12 118.8864 282.5216 228.6592-10.5984 109.7728-154.624 185.344-321.8432 170.752-167.168-14.6432-293.12-120.8832-283.0336-230.7072 10.0864-109.7728 154.624-185.344 321.3312-168.704h1.024z m16.5888 313.2928a124.928 124.928 0 0 0 90.624-174.2848 179.8144 179.8144 0 0 0-215.04-92.16 124.416 124.416 0 0 0-79.0528 176.7936 181.2992 181.2992 0 0 0 201.472 89.088l2.048 0.512z m-60.416-182.8352a44.8 44.8 0 0 1-18.6368 67.4816 63.488 63.488 0 0 1-75.0592-25.1904 44.3392 44.3392 0 0 1 16.64-67.9936 62.976 62.976 0 0 1 76.544 25.1904l0.512 0.512z"  horiz-adv-x="1024" />


    <glyph glyph-name="wx" unicode="&#58949;" d="M696.2176 547.4304c2.56 0 5.0688-0.3072 7.5264-0.3584-28.672 139.8784-173.6704 246.3744-348.7232 246.3744-195.6864 0-354.304-132.9664-354.304-296.96 0-89.7024 47.7696-169.984 122.8288-224.4096l-32.768-127.6416 166.5536 66.8672a421.2736 421.2736 0 0 1 97.6896-11.6736c10.5984 0 20.992 0.6144 31.3856 1.3824a245.4528 245.4528 0 0 0-9.6256 66.8672c0 154.1632 143.2576 279.552 319.488 279.552zM488.6016 659.3024a50.176 50.176 0 1 0 0-100.352 50.176 50.176 0 0 0 0 100.352zM238.8992 558.8992000000001a50.176 50.176 0 1 0 0 100.352 50.176 50.176 0 0 0 0-100.352zM982.272 267.87840000000006c0 135.8848-127.9488 246.0672-286.0032 246.0672-157.9008 0-286.0032-110.1824-286.0032-246.0672s128.1024-246.1184 286.0032-246.1184a326.656 326.656 0 0 1 102.5024 16.5376l105.1136-47.104-18.0736 92.7232c59.0848 45.1072 96.4608 110.6944 96.4608 183.9616z m-378.9824 48.5888a33.4848 33.4848 0 1 0 0 66.9184 33.4848 33.4848 0 0 0 0-66.9184z m194.6112 0a33.4336 33.4336 0 1 0 0 66.9184 33.4336 33.4336 0 0 0 0-66.9184z"  horiz-adv-x="1024" />


    <glyph glyph-name="pengyouquan" unicode="&#58892;" d="M728.32 515.392V849.984S564.608 937.728 373.504 870.08l354.816-354.688z m30.976-196.8V836.16s193.536-87.68 248.128-300.8l-248.128-216.768z m-104.128-150.4l357.312 335.936s63.232-102.784-31.04-336h-326.272z m-182.4-42.624h482.56s-58.24-157.952-266.752-223.104l-215.808 223.104z m-157.504 106.56v-314.56s125.312-80.256 339.904-26.368l-339.904 340.928z m-279.168-16.256l244.416 219.264v-498.688s-147.648 51.2-244.48 279.424z m-6.208 35.072S-26.048 431.36 52.16 588.0319999999999h336.192L29.888 250.94399999999996z m43.392 372.224S144 783.552 336.32 858.752l229.44-235.52H73.28z"  horiz-adv-x="1088" />


    <glyph glyph-name="info" unicode="&#58953;" d="M512.2-64.20000000000005c-247.4 0-448 200.6-448 448s200.6 448 448 448 448-200.6 448-448-200.6-448-448-448z m-1 709.3c28.3 0 51.2-22.9 51.2-51.2v-218.1c0-28.3-22.9-51.2-51.2-51.2-28.3 0-51.2 22.9-51.2 51.2V593.9c-0.1 28.3 22.9 51.2 51.2 51.2z m1-522.6c-28.9 0-52.3 23.4-52.3 52.3s23.4 52.3 52.3 52.3 52.3-23.4 52.3-52.3-23.4-52.3-52.3-52.3z m0-127c214.4 0 388.2 173.8 388.2 388.2S726.6 772 512.2 772 124 598.2 124 383.79999999999995s173.8-388.3 388.2-388.3z"  horiz-adv-x="1024" />


    <glyph glyph-name="shensebanicon" unicode="&#58956;" d="M562.238595-128C278.56664-128 47.8064 100.442771 47.8064 384.080308 47.8064 664.01219 275.583759 896 555.561531 896h0.390069c11.87416 0 22.750202-4.359595 28.062024-15.006184a29.427265 29.427265 0 0 0-3.212333-32.008605c-61.447342-79.631442-93.903379-174.383795-93.903379-274.952765 0-249.070539 202.629381-451.390159 451.699919-451.390159l5.736309 0.275343a31.974187 31.974187 0 0 0 28.497983-17.208927 31.228466 31.228466 0 0 0-3.212333-33.132921c-98.274447-127.460787-246.787488-200.575782-407.381195-200.575782zM493.563503 832.751456C277.362015 799.389083 110.527203 610.962804 110.527203 386.432195c0-249.059066 202.629381-451.699919 451.699919-451.699919 119.831496 0 231.98781 46.36085 315.99032 128.986645-255.323116 29.977951-454.051806 247.659407-454.051806 510.898629 0 91.987452 23.828628 180.051268 69.397867 258.133906z"  horiz-adv-x="1024" />


    <glyph glyph-name="qiansebanicon" unicode="&#58957;" d="M521.226758 63.407003c-178.382537 0-323.494317 145.111779-323.494316 323.482872S342.844221 710.372746 521.226758 710.372746s323.505762-145.111779 323.505762-323.482871S699.620741 63.407003 521.226758 63.407003z m0 585.837736c-144.665422 0-262.366309-117.689441-262.366308-262.354864S376.561336 124.535011 521.226758 124.535011s262.377754 117.677996 262.377754 262.354864S665.949406 649.244739 521.226758 649.244739z m12.303428-777.244739A30.581172 30.581172 0 0 0 502.96046-97.430273v91.697734a30.569727 30.569727 0 0 0 61.139453 0V-97.430273a30.581172 30.581172 0 0 0-30.569727-30.569727z m0 871.162813a30.569727 30.569727 0 0 0-30.569726 30.569726V865.430273a30.569727 30.569727 0 0 0 61.139453 0v-91.697734a30.569727 30.569727 0 0 0-30.569727-30.569726z m-353.652021-727.252764a30.569727 30.569727 0 0 0-21.676923 52.22376l64.824759 64.790423a30.569727 30.569727 0 0 0 43.227951-43.227951l-64.824759-64.824758a30.466721 30.466721 0 0 0-21.608253-8.961474z m615.92677 615.983995a30.569727 30.569727 0 0 0-21.608253 52.177979l64.836203 64.836204a30.562859 30.562859 0 0 0 43.227951-43.216506l-64.836203-64.836204a30.466721 30.466721 0 0 0-21.619698-8.961473z m-551.147791 0a30.466721 30.466721 0 0 0-21.631143 8.961473l-64.836204 64.836204a30.562859 30.562859 0 1 0 43.227951 43.216506l64.836204-64.836204a30.569727 30.569727 0 0 0-21.608253-52.177979z m615.995439-616.006885a30.455276 30.455276 0 0 0-21.619698 8.950028l-64.836203 64.87054a30.562859 30.562859 0 1 0 43.227951 43.216505l64.836203-64.859094a30.569727 30.569727 0 0 0-21.608253-52.177979zM122.85893 345.802148H31.161195a30.569727 30.569727 0 1 0 0 61.128008h91.697735a30.569727 30.569727 0 1 0 0-61.128008z m871.162812 0h-91.709179a30.569727 30.569727 0 0 0 0 61.128008H994.021742a30.569727 30.569727 0 0 0 0-61.128008z"  horiz-adv-x="1024" />


    <glyph glyph-name="shizhong" unicode="&#58891;" d="M507.6-8.769999999999982C298.85-8.769999999999982 129 161.05999999999995 129 369.79999999999995s169.85 378.58 378.6 378.58S886.21 578.54 886.21 369.79999999999995 716.36-8.769999999999982 507.6-8.769999999999982z m0 707.15C326.41 698.38 179 551 179 369.79999999999995s147.41-328.58 328.6-328.58 328.61 147.4 328.61 328.58S688.8 698.38 507.6 698.38z m340.21-88.52a24.88 24.88 0 0 0-17.65 7.3l-64.91 64.74a25 25 0 0 0 35.29 35.4l64.92-64.74a25 25 0 0 0-17.65-42.7zM580 270.32000000000005a24.91 24.91 0 0 0-17.16 6.82L489.7 345.5c-5 4.72-8.58 11.29-8.58 18.17V574.3a25 25 0 0 0 50 0v-199.85l65.32-61c10-9.47 10.87-25.29 1.38-35.33a24.09 24.09 0 0 0-17.82-7.8z m-73.9 441.46a25 25 0 0 0-25 25v50a25 25 0 1 0 50 0v-50a25 25 0 0 0-24.99-25z"  horiz-adv-x="1024" />


    <glyph glyph-name="yuebuzu" unicode="&#58958;" d="M510.6 383.8m-418.1 0a418.1 418.1 0 1 1 836.2 0 418.1 418.1 0 1 1-836.2 0ZM510.6-64.2c-247 0-448 200.9-448 448s200.9 448 448 448 448-200.9 448-448-201-448-448-448z m0 836.2c-214.1 0-388.2-174.2-388.2-388.2s174.2-388.2 388.2-388.2 388.2 174.2 388.2 388.2S724.7 772 510.6 772zM509.6 645.1c28.3 0 51.2-22.9 51.2-51.2v-218.1c0-28.3-22.9-51.2-51.2-51.2-28.3 0-51.2 22.9-51.2 51.2V593.9c-0.1 28.3 22.9 51.2 51.2 51.2z m1-522.6c-28.9 0-52.3 23.4-52.3 52.3s23.4 52.3 52.3 52.3 52.3-23.4 52.3-52.3-23.4-52.3-52.3-52.3z"  horiz-adv-x="1024" />


    <glyph glyph-name="xiadanshibai" unicode="&#58959;" d="M511 383.4m-417.8 0a417.8 417.8 0 1 1 835.6 0 417.8 417.8 0 1 1-835.6 0ZM511-64.2c-246.9 0-447.7 200.8-447.7 447.7S264.1 831.1 511 831.1s447.7-200.8 447.7-447.7S757.8-64.2 511-64.2z m0 835.6c-213.9 0-388-174.1-388-388s174.1-388 388-388 388 174.1 388 388-174.1 388-388 388zM681 553.4c-12.1 12.1-31.6 12.1-43.7 0L511 427.1 384.7 553.4c-12.1 12.1-31.6 12.1-43.7 0s-12.1-31.6 0-43.7l126.3-126.3L341 257.1c-12.1-12.1-12.1-31.6 0-43.7 6-6 13.9-9 21.9-9 7.9 0 15.9 3.1 21.9 9L511 339.7l126.3-126.3c6-6 13.9-9 21.9-9s15.9 3.1 21.9 9c12.1 12.1 12.1 31.6 0 43.7L554.7 383.4 681 509.7c12.1 12.1 12.1 31.6 0 43.7z"  horiz-adv-x="1024" />


    <glyph glyph-name="huazhangchenggong" unicode="&#58960;" d="M511.4 383.1m-416.9 0a416.9 416.9 0 1 1 833.8 0 416.9 416.9 0 1 1-833.8 0ZM511.4-63.6C265.1-63.6 64.8 136.7 64.8 383S265.1 829.7 511.4 829.7 958 629.4 958 383.1 757.7-63.6 511.4-63.6z m0 833.7C298 770.1 124.3 596.5 124.3 383S298-4 511.4-4s387.1 173.6 387.1 387.1-173.7 387-387.1 387zM739.7 500L473.8 215c-13.2-14.1-34.5-14.1-47.7 0l-143 153.4c-13.2 14.1-13.2 37 0 51.1 13.2 14.1 34.5 14.1 47.7 0L450 291.7l242 259.4c13.2 14.1 34.5 14.1 47.7 0 13.2-14.1 13.2-37 0-51.1z"  horiz-adv-x="1024" />


    <glyph glyph-name="shezhi" unicode="&#58961;" d="M645.6-36.2c-17.2 0-31.3 6.2-42.2 18.5-6.2 6.2-13.7 13.1-22.7 20.6-8.9 7.6-20.3 15.1-34 22.7s-26.1 11.3-37.1 11.3c-15.8 0-32.8-6.2-51-18.5-18.2-12.4-32.5-24-42.8-35-11-12.4-25.1-18.5-42.2-18.5-4.1 0-7.9 0.5-11.3 1.5-3.4 1-6.9 2.2-10.3 3.6h-1l-110.2 61.8-1 1c-9.6 6.9-16.1 16.3-19.6 28.3-3.4 12-2.7 23.5 2.1 34.5 6.9 15.8 10.3 30.6 10.3 44.3 0 32.3-11.3 59.8-34 82.4-22.7 22.7-50.1 34-82.4 34H112c-3.4 0-6.5 0.5-9.3 1.5-2.7 1-5.5 2.4-8.2 4.1-2.7 1.7-5.2 3.8-7.2 6.2-2.1 2.4-3.9 5.2-5.7 8.2-1.7 3.1-3.3 6.5-4.6 10.3-1.4 3.8-2.4 7.7-3.1 11.8-6.9 33-10.3 62.2-10.3 87.6 0 6.9 0.3 14.6 1 23.2s1.4 16.3 2.1 23.2l4.1 20.6c0.7 6.9 1.2 11.7 1.5 14.4 0.3 2.7 0.9 4.8 1.5 6.2 0.7 6.2 2.2 12 4.6 17.5 2.4 5.5 5.3 10 8.8 13.4 3.4 3.4 7.4 6.2 11.8 8.2 4.5 2.1 8.8 2.7 12.9 2.1h4.1c32.3 0 59.8 11.5 82.4 34.5 22.7 23 34 50.3 34 81.9 0 14.4-3.4 29.5-10.3 45.3-2.1 5.5-3.3 11.2-3.6 17-0.3 5.8 0.2 11.7 1.5 17.5 1.4 5.8 3.8 11.2 7.2 16 3.4 4.8 7.6 8.9 12.4 12.4l2.1 1 115.4 63.9h1c2.1 1.4 4.3 2.4 6.7 3.1 2.4 0.7 4.6 1 6.7 1h8.2c17.2 0 31.3-5.5 42.2-16.5 10.3-11.7 24.4-23.4 42.2-35s34.3-17.5 49.5-17.5 31.4 5.8 48.9 17.5 31.8 23 42.8 34c3.4 3.4 7.4 6.4 11.8 8.8 4.5 2.4 9.3 4.3 14.4 5.7s10.1 2.1 14.9 2.1h6.2c2.1 0 3.9-0.2 5.7-0.5 1.7-0.3 3.4-0.9 5.2-1.5s3.3-1.4 4.6-2.1l2.1-1 111.3-61.8 1-1c10.3-6.9 17.2-16.3 20.6-28.3 3.4-12 2.7-23.5-2.1-34.5-6.9-15.8-10.3-30.9-10.3-45.3 0-10.3 1.4-20.4 4.1-30.4 2.7-10 6.5-19.2 11.3-27.8s10.8-16.5 18-23.7c7.2-7.2 15.1-13.2 23.7-18s17.9-8.8 27.8-11.8c10-3.1 20.4-4.6 31.4-4.6h3.1c9.6 0.7 18-2.7 25.2-10.3 7.2-7.6 11.8-17.9 13.9-30.9 6.2-33 9.3-62.2 9.3-87.6s-3.1-54.6-9.3-87.6c-2.1-13.1-6.7-23.4-13.9-30.9-7.2-7.6-15.6-11.3-25.2-11.3H907c-21.3 0-40.9-5.2-58.7-15.5-17.9-10.3-31.9-24.4-42.2-42.2-10.3-17.9-15.5-37.4-15.5-58.7 0-13.7 3.4-28.5 10.3-44.3 4.8-11 5.5-22.5 2.1-34.5s-10.3-21.5-20.6-28.3l-1-1-113.3-62.8-1-1c-3.4-1.4-6.9-2.4-10.3-3.1s-7.1-1.4-11.2-1.4z m-3.1 53.6l3.1-1 106.1 58.7c-8.9 22.7-13.4 44.3-13.4 64.9 0 45.3 15.5 84.3 46.4 116.9 30.9 32.6 68.7 50 113.3 52 0 1.4 0.2 2.6 0.5 3.6s0.5 2.6 0.5 4.6l2.1 6.2c0 2.1 0.2 4.5 0.5 7.2s0.9 5.8 1.5 9.3V348l2.1 10.3v8.2c0.7 3.4 1 6.9 1 10.3v9.3c0 20.6-2.7 46.4-8.2 77.3-29.5 1.4-56.5 9.6-80.9 24.7-24.4 15.1-43.6 35.4-57.7 60.8-14.1 25.4-21.1 52.9-21.1 82.4 0 21.3 4.5 43.3 13.4 65.9l-104 57.8h-1c-1.4 0-2.4-0.3-3.1-1-2.1-1.4-4.3-3.3-6.7-5.7-2.4-2.4-6.7-6.4-12.9-11.8-6.2-5.5-12.7-10.6-19.6-15.5-15.8-11-31.4-19.4-46.9-25.2-15.5-5.8-30-8.8-43.8-8.8-28.2 0-58.7 11.7-91.7 35-15.1 11-27.8 22-38.1 33l-4.1 1h-1l-108.2-58.7c2.1-4.1 3.9-8.6 5.7-13.4 1.7-4.8 3.6-12.4 5.7-22.7 2-10.2 3-20.2 3-29.8 0-29.5-7-57-21.1-82.4-14.1-25.4-33.5-45.7-58.2-60.8-24.7-15.1-51.5-23.4-80.4-24.7-1.4-5.5-2.6-11.3-3.6-17.5-1-6.2-2.1-15.5-3.1-27.8s-1.5-23-1.5-31.9c0-20.6 2.7-46.4 8.2-77.3 44.6-2.1 82.4-19.4 113.3-52 31-32.7 46.4-71.7 46.4-117 0-8.9-1-18.5-3.1-28.8s-3.9-17.9-5.7-22.7c-1.7-4.8-3.6-9.3-5.7-13.4l103-56.7h3.1l7.2 6.2c2.1 2.7 6.4 7 12.9 12.9 6.5 5.8 12.9 11.2 19.1 16 33.7 24 64.9 36.1 93.8 36.1 9.6 0 19.4-1.4 29.4-4.1 10-2.7 20.3-6.9 30.9-12.4s21.5-12.4 32.5-20.6c15.8-11.1 29.1-22.8 40.1-35.1zM509.6 231.7c-28.2 0-54.1 6.9-77.8 20.6-23.7 13.7-42.4 32.6-56.1 56.7-13.7 24-20.6 50-20.6 77.8s6.9 53.7 20.6 77.8c13.7 24 32.5 42.9 56.1 56.7 23.7 13.7 49.6 20.6 77.8 20.6 42.6 0 79-15.1 109.2-45.3s45.3-66.8 45.3-109.7c0-42.9-15.1-79.5-45.3-109.7s-66.6-45.5-109.2-45.5z m0 257.5c-28.2 0-52.2-10-72.1-29.9-19.9-19.9-29.9-44.1-29.9-72.6 0-28.5 10-52.7 29.9-72.6 19.9-19.9 44-29.9 72.1-29.9 18.5 0 35.7 4.6 51.5 13.9 15.8 9.3 28.2 21.8 37.1 37.6 8.9 15.8 13.4 33 13.4 51.5 0 28.2-10 52.2-29.9 72.1-19.9 20-43.9 29.9-72.1 29.9z"  horiz-adv-x="1024" />


    <glyph glyph-name="zhangdiefudie" unicode="&#58962;" d="M565 829.5H449.5v-893.7l259.3 436.6-99.4 59-44.4-74.7z"  horiz-adv-x="1024" />


    <glyph glyph-name="zhangdiefuzhang" unicode="&#58963;" d="M564.9-64.2H449.3V829.5l259.3-436.7-99.4-59-44.3 74.7z"  horiz-adv-x="1024" />


    <glyph glyph-name="zhanghu1" unicode="&#58966;" d="M384.2 420.8c-60.7 42.4-96.7 111.4-96.5 185 0 124.3 100.3 225.1 224.2 225.1S736 730 736 605.9c0-124.2-100.3-225.1-224.2-225.1-150.9 0-273.4-123.3-273.4-275.6 0-11.6-6.3-22.3-16.4-28.1-10.2-5.8-22.7-5.8-32.8 0-10.2 5.8-16.4 16.5-16.4 28.1 0 142.6 87.3 264.9 211.4 315.6z m127.6 24.9c87.5 0 158.6 71.6 158.6 160.1s-71.1 160.1-158.6 160.1-158.6-71.5-158.6-160.1 71.2-160.1 158.6-160.1z m339.1-340.6c0-11.6-6.3-22.3-16.4-28.1-10.2-5.8-22.7-5.8-32.8 0-10.2 5.8-16.4 16.5-16.4 28.1 0.2 69.6-26.1 136.8-73.6 188.1-7.9 8.6-10.7 20.6-7.1 31.7 3.5 11.1 12.7 19.5 24.2 22 11.4 2.5 23.4-1.2 31.3-9.7 58.5-63.3 91-146.2 90.8-232.1z"  horiz-adv-x="1024" />


    <glyph glyph-name="xiaoxi1" unicode="&#58967;" d="M384.2 77.1c0-56 56.7-101.3 126.7-101.3s126.7 45.4 126.7 101.3M789.6 77.1H232.2c-55.9 0-101.3 45.5-101.3 101.3s45.4 101.3 101.3 101.3v228c0 153.7 125 278.7 278.7 278.7s278.7-125 278.7-278.7v-228c55.9 0 101.3-45.5 101.3-101.3s-45.5-101.3-101.3-101.3zM232.2 219c-22.4 0-40.6-18.2-40.6-40.6s18.2-40.6 40.6-40.6h557.3c22.4 0 40.6 18.2 40.6 40.6S811.9 219 789.6 219h-60.8V507.8c0 120.1-97.8 217.9-217.9 217.9S293 627.9 293 507.8V219h-60.8z"  horiz-adv-x="1024" />


    <glyph glyph-name="shezhi1" unicode="&#58968;" d="M930.7 472.5c0.4-2 8.9-50.3 8.9-88.3 0-38.8-8.8-87.9-8.9-88.5-5-27.9-21.1-45.9-41.1-45.9h-4.2c-57.6 0-104.5-49.6-104.5-110.5 0-19.7 9.1-42 9.2-42.2 10.3-24.5 2.4-54.6-18.5-70l-1.3-1-107.7-62.9-1.3-0.6c-6.7-3.1-14.1-4.6-22-4.6-16.8 0-33.1 7.4-43.7 19.8-11.8 13.7-52.9 52.9-84.9 52.9-29.6 0-69.6-35-84.4-51.9-10.6-12.2-26.8-19.4-43.4-19.4-8 0-15.5 1.6-22.4 4.8l-1.3 0.6-103.9 61.4-1.2 0.9c-20.8 15.4-28.8 45.5-18.4 70.1 0.1 0.2 9.1 22.3 9.1 42.1 0 60.9-46.9 110.5-104.5 110.5H136c-19.9 0-36 18-41 45.9-0.4 2-8.9 50.5-8.9 88.4 0 37.9 8.5 86.4 8.9 88.4 5 27.9 21.1 45.9 41 45.9h4.3c57.6 0 104.5 49.6 104.5 110.5 0 19.9-9 42-9.1 42.2-10.3 24.6-2.3 54.7 18.6 70l1.3 1 109.6 63.7 1.4 0.7c6.7 3.1 14.2 4.6 22 4.6 16.6 0 32.8-7.1 43.4-19 11.7-12.9 52-49.8 83.1-49.8 30.8 0 70.9 36.2 82.5 48.9 10.6 11.6 26.7 18.6 43.1 18.6 8 0 15.5-1.6 22.4-4.8l1.3-0.6 105.9-62.2 1.3-1c20.8-15.4 28.8-45.5 18.5-70.1-0.1-0.2-9.1-22.4-9.1-42.1 0-60.9 46.9-110.5 104.5-110.5h4.2c19.9-0.1 36-18.1 41-46zM383.2 23.1c4.1 4.5 17.9 19.2 36.6 33.7 31.9 24.7 62.3 37.3 90.6 37.3 28.5 0 59.2-12.7 91.3-37.9 19-14.9 32.8-29.8 36.9-34.4L733 77c-4 10.9-12.1 36.2-12.1 62.4 0 91.1 66.4 166.5 151.8 173.4 2.1 12.9 7 45.8 7 71.4 0 25.5-4.9 58.5-7 71.4-85.5 6.9-151.8 82.3-151.8 173.4 0 26.2 8.1 51.6 12.2 62.5l-93.3 54.8c-3.5-3.7-17.4-18.1-36.5-32.3-31.2-23.3-61-35.1-88.3-35.1-27.6 0-57.6 12-89.1 35.7-19.2 14.5-33.2 29.2-36.7 32.9l-96.7-56.2c4-10.9 12.1-36.2 12.1-62.3 0-91.1-66.4-166.5-151.7-173.4-2.1-12.9-7-45.8-7-71.4 0-25.6 4.9-58.6 7-71.4 85.4-6.9 151.7-82.3 151.7-173.4 0-26.3-8.1-51.6-12.2-62.5l90.8-53.8z m290.2 361.6c0-88.1-72-159.7-160.4-159.7-88.5 0-160.4 71.6-160.4 159.7S424.5 544.4 513 544.4s160.4-71.6 160.4-159.7z m-160.5 96.4c-53.3 0-96.7-43.2-96.8-96.3 0-53.1 43.4-96.3 96.8-96.3s96.8 43.2 96.8 96.3-43.4 96.3-96.8 96.3z"  horiz-adv-x="1024" />


    <glyph glyph-name="suoxiao" unicode="&#58954;" d="M859-63.6H163.6c-54.8 0-99.3 44.6-99.3 99.3V731.2c0 54.8 44.6 99.3 99.3 99.3H859c54.8 0 99.3-44.6 99.3-99.3v-695.4c0.1-54.8-44.5-99.4-99.3-99.4zM163.6 780.9c-27.4 0-49.7-22.3-49.7-49.7v-695.4c0-27.4 22.3-49.7 49.7-49.7H859c27.4 0 49.7 22.3 49.7 49.7V731.2c0 27.4-22.3 49.7-49.7 49.7H163.6zM740.6 402.6H282.1c-10.7 0-19.1-8.4-19.1-19.1 0-10.7 8.4-19.1 19.1-19.1h458.5c10.7 0 19.1 8.4 19.1 19.1 0 10.7-8.4 19.1-19.1 19.1z"  horiz-adv-x="1024" />


    <glyph glyph-name="fangda" unicode="&#58955;" d="M163.7 782.4c-27.4 0-49.7-22.2-49.7-49.7v-695.4c0-27.4 22.2-49.7 49.7-49.7H859c27.4 0 49.7 22.2 49.7 49.7V732.7c0 27.4-22.2 49.7-49.7 49.7H163.7z m0 49.7H859c54.9 0 99.3-44.5 99.3-99.3v-695.4c0-54.9-44.5-99.3-99.3-99.3H163.7c-54.9 0-99.3 44.5-99.3 99.3V732.7c-0.1 54.9 44.4 99.4 99.3 99.4zM740.6 404.1H530.5V614.3c0 10.7-8.4 19.1-19.1 19.1-10.7 0-19.1-8.4-19.1-19.1v-210.1H282.1c-10.7 0-19.1-8.4-19.1-19.1 0-10.7 8.4-19.1 19.1-19.1h210.1v-210.1c0-10.7 8.4-19.1 19.1-19.1 10.7 0 19.1 8.4 19.1 19.1v210h210.1c10.7 0 19.1 8.4 19.1 19.1 0.1 10.7-8.3 19.1-19 19.1z"  horiz-adv-x="1024" />


    <glyph glyph-name="zonglan-zhengchangzhuangtai" unicode="&#58950;" d="M511.9-65c-63.3 0-124.5 13-181.9 38.5-70.1 31.2-131.4 80.4-177.4 142.2C95 193.3 64.5 285.5 64.5 382.4c0 246.7 200.7 447.4 447.4 447.4s447.4-200.7 447.4-447.4S758.6-65 511.9-65z m0 843.2c-218.2 0-395.8-177.5-395.8-395.8 0-85.7 26.9-167.3 77.9-235.9 40.7-54.7 95-98.2 157-125.8 50.7-22.6 104.8-34.1 160.9-34.1 218.2 0 395.8 177.6 395.8 395.8 0 218.3-177.5 395.8-395.8 395.8zM331.2 554.5h361.4c14.3 0 25.8-11.6 25.8-25.8 0-14.3-11.6-25.8-25.8-25.8H331.2c-14.3 0-25.8 11.6-25.8 25.8 0 14.3 11.6 25.8 25.8 25.8zM331.2 416.9h361.4c14.3 0 25.8-11.6 25.8-25.8 0-14.3-11.6-25.8-25.8-25.8H331.2c-14.3 0-25.8 11.6-25.8 25.8 0 14.2 11.6 25.8 25.8 25.8zM331.2 279.2h223.7c14.3 0 25.8-11.6 25.8-25.8 0-14.3-11.6-25.8-25.8-25.8H331.2c-14.3 0-25.8 11.6-25.8 25.8 0 14.2 11.6 25.8 25.8 25.8z"  horiz-adv-x="1024" />


    <glyph glyph-name="zonglan-liulanzhuangtai" unicode="&#58952;" d="M512.8-63.6c-64.7 0-126.3 13.8-181.8 38.5-70.7 31.5-131.7 80.8-177.3 142.1-55.3 74.4-88.1 166.7-88.1 266.5 0 247 200.2 447.2 447.2 447.2S960 630.6 960 383.6 759.8-63.6 512.8-63.6zM332.2 555.6c-14.2 0-25.8-11.6-25.8-25.8 0-14.2 11.6-25.8 25.8-25.8h361.2c14.2 0 25.8 11.6 25.8 25.8 0 14.2-11.6 25.8-25.8 25.8H332.2z m0-137.6c-14.2 0-25.8-11.6-25.8-25.8 0-14.2 11.6-25.8 25.8-25.8h361.2c14.2 0 25.8 11.6 25.8 25.8 0 14.2-11.6 25.8-25.8 25.8H332.2z m0-137.6c-14.2 0-25.8-11.6-25.8-25.8s11.6-25.8 25.8-25.8h223.6c14.2 0 25.8 11.6 25.8 25.8s-11.6 25.8-25.8 25.8H332.2z"  horiz-adv-x="1024" />


    <glyph glyph-name="ATjiangli-liulanzhuangtai" unicode="&#58969;" d="M510.2-63.6c-64.8 0-126.4 13.8-182 38.5-70.7 31.5-131.8 80.8-177.5 142.3C95.3 191.8 62.6 284.1 62.6 384 62.6 631.3 263 831.6 510.2 831.6S957.8 631.3 957.8 384 757.4-63.6 510.2-63.6z m2.3 470.6l83.1 33.7c-69.7-113.3-176.2-165-324.5-158.2l-3.9-86c216.5-9.9 368.6 89.7 447.8 292.8 1.6 4 3.8 9.9 6.6 17.7l33.4 91.1-274.8-111.3 32.3-79.8z"  horiz-adv-x="1024" />


    <glyph glyph-name="ATjiangli-zhengchangzhuangtai" unicode="&#58970;" d="M510.7-12.2c219.2 0 396.9 177.7 396.9 396.9S729.9 781.5 510.7 781.5 113.9 603.8 113.9 384.7c0-86.5 27.7-168.6 78.1-236.5 40.7-54.8 95-98.4 157.4-126.2 50.3-22.5 104.9-34.2 161.3-34.2z m0-51.8c-64.9 0-126.7 13.8-182.4 38.6-70.9 31.6-132.1 81-177.9 142.6C94.9 191.9 62 284.4 62 384.6 62 632.4 262.9 833.2 510.6 833.2s448.6-200.9 448.6-448.6S758.5-64 510.7-64zM513.1 407.6l-32.4 80 275.4 111.6-33.4-91.3c-2.9-7.8-5.1-13.7-6.6-17.8-79.4-203.6-231.8-303.4-448.8-293.5l3.9 86.2c148.6-6.8 255.4 45 325.2 158.6l-83.3-33.8z"  horiz-adv-x="1024" />


    <glyph glyph-name="ATwakuang-liulanzhuangtai" unicode="&#58971;" d="M512.3-63.1c-64.7 0-126.2 13.8-181.7 38.5C260 6.9 199 56.1 153.4 117.5c-55.3 74.4-88 166.6-88 266.4 0 246.9 200.1 447 447 447s447-200.1 447-447-200.2-447-447.1-447z m-185 524c-25.5 0-46.2-20.7-46.2-46.2v-200.4h92.5V414.7c0 25.5-20.7 46.2-46.3 46.2z m185 123.4c-25.5 0-46.2-20.7-46.2-46.2v-323.7h92.5V538c-0.1 25.5-20.8 46.3-46.3 46.3z m184.9-154.2c-25.5 0-46.2-20.7-46.2-46.2v-169.6h92.5V383.9c0 25.5-20.7 46.2-46.3 46.2z"  horiz-adv-x="1024" />


    <glyph glyph-name="ATwakuang-zhengchangzhuangtai" unicode="&#58972;" d="M512-10.8c218.5 0 395.6 177.1 395.6 395.6S730.5 780.4 512 780.4 116.4 603.3 116.4 384.8c0-86.2 27.6-168.1 77.9-235.8 40.6-54.6 94.7-98.1 156.9-125.8 50.2-22.3 104.6-34 160.8-34z m0-51.6c-64.7 0-126.3 13.8-181.8 38.5-70.7 31.5-131.7 80.8-177.3 142.2C97.6 192.7 64.8 285 64.8 384.8 64.8 631.8 265.1 832 512 832s447.2-200.2 447.2-447.2S759-62.4 512-62.4zM327 461.9c25.6 0 46.3-20.7 46.3-46.3v-200.5h-92.5V415.7c-0.1 25.5 20.6 46.2 46.2 46.2z m185 123.4c25.6 0 46.3-20.7 46.3-46.3v-323.8h-92.5V539c0 25.6 20.7 46.3 46.2 46.3z m185.1-154.2c25.6 0 46.3-20.7 46.3-46.3v-169.6h-92.5V384.8c-0.1 25.6 20.6 46.3 46.2 46.3z"  horiz-adv-x="1024" />


    </font>
</defs>
</svg>
